/* XPM */
static char *result[] = {
/* columns rows colors chars-per-pixel */
"20 30 182 2 ",
"   c black",
".  c #010101",
"X  c #000200",
"o  c #010301",
"O  c #020102",
"+  c #020302",
"@  c #020402",
"#  c gray4",
"$  c #0B0B0B",
"%  c #0C0C0C",
"&  c #101010",
"*  c #171617",
"=  c #181718",
"-  c #162A17",
";  c #2B3F2C",
":  c gray21",
">  c gray24",
",  c #3F3F3F",
"<  c #274829",
"1  c #345436",
"2  c #2F6431",
"3  c #316533",
"4  c #3B673D",
"5  c #3F6640",
"6  c #3F6841",
"7  c gray25",
"8  c #4C4C4C",
"9  c #406841",
"0  c #4A7D4D",
"q  c #686868",
"w  c #6A6A6A",
"e  c #438847",
"r  c #539456",
"t  c #569A59",
"y  c #56A45A",
"u  c #57A55B",
"i  c #59A75C",
"p  c #59A75D",
"a  c #5FAC63",
"s  c #60AF64",
"d  c #62B166",
"f  c #62B266",
"g  c #61B565",
"h  c #62B566",
"j  c #61B666",
"k  c #62B766",
"l  c #60BC64",
"z  c #61BE66",
"x  c #63B068",
"c  c #65B269",
"v  c #66B269",
"b  c #65B26A",
"n  c #66B26A",
"m  c #63BF68",
"M  c #5FC864",
"N  c #5FC964",
"B  c #5FCB64",
"V  c #5FCE65",
"C  c #61C066",
"Z  c #61C266",
"A  c #61C366",
"S  c #62C266",
"D  c #62C366",
"F  c #60C464",
"G  c #60C465",
"H  c #60C864",
"J  c #60CB64",
"K  c #61C966",
"L  c #61CA66",
"P  c #61CB66",
"I  c #60CC65",
"U  c #60CE65",
"Y  c #61CD66",
"T  c #62CC67",
"R  c #61CE66",
"E  c #61CF66",
"W  c #62CE67",
"Q  c #63CE68",
"!  c #64CF69",
"~  c #6ACB6E",
"^  c #62D167",
"/  c #64D169",
"(  c #6BCE70",
")  c #6ECF73",
"_  c #76D07A",
"`  c #77D47C",
"'  c #78D07C",
"]  c #79D37E",
"[  c #7AD27F",
"{  c #76D97B",
"}  c #78D87D",
"|  c #77E97C",
" . c #78E97D",
".. c #7ECE82",
"X. c #7CE981",
"o. c #7DE982",
"O. c #7EEE83",
"+. c #7FF484",
"@. c #7FF585",
"#. c #8B8B8B",
"$. c #939393",
"%. c #989798",
"&. c #81A183",
"*. c #A2A2A2",
"=. c #ABA9AB",
"-. c #A7BBA8",
";. c gray72",
":. c #B9B9B9",
">. c #84C887",
",. c #82CE85",
"<. c #83CE87",
"1. c #81D284",
"2. c #81D384",
"3. c #82D586",
"4. c #82D686",
"5. c #83D687",
"6. c #82D986",
"7. c #82DA86",
"8. c #81DE86",
"9. c #87D18A",
"0. c #9BCE9E",
"q. c #81E685",
"w. c #81E785",
"e. c #81E486",
"r. c #82E786",
"t. c #81E985",
"y. c #81E886",
"u. c #80EC85",
"i. c #80EE85",
"p. c #88E88C",
"a. c #80F185",
"s. c #80F485",
"d. c #80F585",
"f. c #81F786",
"g. c #82F687",
"h. c #89F18E",
"j. c #93EE97",
"k. c #9CE99F",
"l. c #93F397",
"z. c #94F497",
"x. c #A3C2A4",
"c. c #A4C3A6",
"v. c #AACEAC",
"b. c #A5F3A8",
"n. c #ADE5B0",
"m. c #B5E4B8",
"M. c #B9E2BB",
"N. c #BCE3BE",
"B. c #BFCEC0",
"V. c gray78",
"C. c #C8CEC8",
"Z. c #CBCECB",
"A. c #CDCDCD",
"S. c #CECECE",
"D. c #CECFCE",
"F. c #CFCECF",
"G. c #C9D1C9",
"H. c #D0D0D0",
"J. c #D1D0D1",
"K. c #D2D0D2",
"L. c LightGray",
"P. c #D5D5D5",
"I. c #DEE7DF",
"U. c #D7EAD8",
"Y. c #DDF0DD",
"T. c #DEF1DE",
"R. c #DEF1DF",
"E. c #E1E0E1",
"W. c #E7E7E7",
"Q. c #E8E7E8",
"!. c #E9E9E9",
"~. c #EDECED",
"^. c #EEEDEE",
"/. c #E1F4E1",
"(. c #E8F1E8",
"). c #F1EFF1",
"_. c gray94",
"`. c #F1F0F0",
"'. c #F1F1F1",
"]. c #F2F0F1",
"[. c #F3F3F3",
"{. c None",
/* pixels */
"{.{.{.{.{.{.R R R Q ] 3.3.3.3.{.{.{.{.{.",
"{.{.{.{.{.R R R R Q ] 3.3.3.3.{.{.{.{.{.",
"{.{.{.{.{.R R R R Q ] 3.3.3.3.{.{.{.{.{.",
"{.{.{.R R R R R R Q ] 3.3.3.3.3.3.{.{.{.",
"{.{.{.R R R R R R Q ] 3.3.3.3.3.3.{.{.{.",
"{.{.{.R R R R R R Q ] 3.3.3.3.3.3.8.{.{.",
"{.R R R R R R R R ! ] 5.3.3.3.3.4.q.s.s.",
"R R R R Y I J J B T ' 1.1.1.2.3.4.w.s.s.",
"R R P S l e 2 2 2 3 4 9 6 5 0 _ r.i.s.s.",
"E E K k a < X o @ @ @ @ +   - ~ g.s.s.s.",
"H N G h a 1 * & O       $ = ; ) f.s.s.s.",
"u u p s x &.%.w #     . 8 =.-.p.@.s.s.s.",
"r r t a b c.L.$.%       q ^./.z.+.s.s.s.",
"y y i s n x.H.*.7 : > , #.~.R.l.+.s.s.s.",
"M M F g v x.F.V.;.:.A.P.E.).T.l.+.s.s.s.",
"E E K j c x.S.D.H.L.!.[.'.`.Y.l.+.s.s.s.",
"{.R K C m >.0.v.Z.J.W._.U.M.n.h.+.s.s.{.",
"{.{.{.Y Y W W <.C.K.Q.].N.[ } O.s.{.{.{.",
"{.{.{.R R R V ..B.G.I.(.m.` { O.s.{.{.{.",
"{.{.{.{.{.R R ( ,.9.k.b.j.o.X.{.{.{.{.{.",
"{.{.{.{.{.R R R U ^ | +.+.s.d.{.{.{.{.{.",
"{.{.{.{.{.L R R R /  .s.a.i.u.{.{.{.{.{.",
"{.{.{.d f A R R R /  .s.t.7.6.4.3.{.{.{.",
"{.{.{.d f Z R R R /  .s.q.3.3.3.3.{.{.{.",
"{.{.d d f z R R R /  .s.q.4.3.3.3.3.{.{.",
"{.d d d d {.{.{.{.{.{.{.{.{.{.3.3.3.3.3.",
"f f f d d {.{.{.{.{.{.{.{.{.{.3.3.4.4.4.",
"D D S {.{.{.{.{.{.{.{.{.{.{.{.{.{.e.y.y.",
"R R R {.{.{.{.{.{.{.{.{.{.{.{.{.{.s.s.s.",
"R R R {.{.{.{.{.{.{.{.{.{.{.{.{.{.s.s.s."
};
