/* XPM */
static char *blackhole1712608144[] = {
/* columns rows colors chars-per-pixel */
"75 75 252 2 ",
"   c #010104",
".  c #0A0102",
"X  c #03010C",
"o  c #09020D",
"O  c #05090C",
"+  c #060908",
"@  c #040213",
"#  c #090314",
"$  c #0B0914",
"%  c #05031B",
"&  c #0A041B",
"*  c #0C0A1C",
"=  c #06091A",
"-  c #12081A",
";  c #12101B",
":  c #0C0C0D",
">  c #050223",
",  c #0B0423",
"<  c #0C0A23",
"1  c #05022B",
"2  c #0B052C",
"3  c #0D0B2B",
"4  c #040B26",
"5  c #120C24",
"6  c #120C2C",
"7  c #120429",
"8  c #081327",
"9  c #151224",
"0  c #14122B",
"q  c #1B192A",
"w  c #0B0434",
"e  c #0D0B33",
"r  c #0C053A",
"t  c #0C0A3B",
"y  c #030638",
"u  c #120C34",
"i  c #130C3C",
"p  c #180937",
"a  c #0A1138",
"s  c #151333",
"d  c #15123C",
"f  c #1B143C",
"g  c #1A1937",
"h  c #21183A",
"j  c #29283B",
"k  c #0C0B44",
"l  c #0C0C4B",
"z  c #060645",
"x  c #120C43",
"c  c #130C4B",
"v  c #190947",
"b  c #081447",
"n  c #151343",
"m  c #15134B",
"M  c #1A144B",
"N  c #1A1948",
"B  c #0B0B55",
"V  c #130D54",
"C  c #170D58",
"Z  c #091759",
"A  c #141253",
"S  c #1B1454",
"D  c #1C125D",
"F  c #1C1A5C",
"G  c #161658",
"H  c #23164A",
"J  c #251857",
"K  c #200F45",
"L  c #132453",
"P  c #292547",
"I  c #28255A",
"U  c #393659",
"Y  c #32304B",
"T  c #180D66",
"R  c #091864",
"E  c #1B1364",
"W  c #191766",
"Q  c #1A1875",
"!  c #0A0A60",
"~  c #251A68",
"^  c #251978",
"/  c #2B1866",
"(  c #192467",
")  c #182675",
"_  c #173879",
"`  c #112A6C",
"'  c #272469",
"]  c #39386B",
"[  c #272778",
"{  c #37277A",
"}  c #363675",
"|  c #2B3273",
" . c #413E75",
".. c #2A477A",
"X. c #454266",
"o. c #514E7B",
"O. c #41405F",
"+. c #181584",
"@. c #281987",
"#. c #2B1A94",
"$. c #331C98",
"%. c #2A138B",
"&. c #1B2599",
"*. c #162F89",
"=. c #282889",
"-. c #362989",
";. c #273388",
":. c #373789",
">. c #272995",
",. c #352A99",
"<. c #273596",
"1. c #38369A",
"2. c #1B31AD",
"3. c #3626A6",
"4. c #2735A4",
"5. c #3837A5",
"6. c #3D2AB4",
"7. c #3838B9",
"8. c #2B30AC",
"9. c #341BAB",
"0. c #483896",
"q. c #4539A9",
"w. c #4539B7",
"e. c #462FB1",
"r. c #1D4282",
"t. c #39469B",
"y. c #2D5096",
"u. c #3A46A7",
"i. c #3C4AB6",
"p. c #3A56B8",
"a. c #314CAB",
"s. c #3B69A7",
"d. c #3C6593",
"f. c #484996",
"g. c #4C4F8F",
"h. c #4749AA",
"j. c #4457AB",
"k. c #4745B7",
"l. c #5649B8",
"z. c #4954BA",
"x. c #5555B5",
"c. c #5A67BB",
"v. c #476CB1",
"b. c #6773BA",
"n. c #595DA3",
"m. c #3539C9",
"M. c #4939C8",
"N. c #543BDA",
"B. c #4D33C9",
"V. c #3A58C5",
"C. c #394AD4",
"Z. c #3B47C6",
"A. c #3E69D0",
"S. c #3A5AE5",
"D. c #4747CA",
"F. c #5548C6",
"G. c #4757C7",
"H. c #5658CA",
"J. c #5748D5",
"K. c #4756D8",
"L. c #5757D7",
"P. c #4D4AD6",
"I. c #6556D9",
"U. c #6553CC",
"Y. c #4667CA",
"T. c #5A66C8",
"R. c #5776C8",
"E. c #4C66D7",
"W. c #5568D6",
"Q. c #4B74D8",
"!. c #5677D7",
"~. c #4E77C5",
"^. c #6464CB",
"/. c #6676C9",
"(. c #6466DB",
"). c #6676D8",
"_. c #7673D4",
"`. c #5856E4",
"'. c #5050E8",
"]. c #6755EA",
"[. c #6955EF",
"{. c #586DE7",
"}. c #5A79E8",
"|. c #4E6FED",
" X c #656AE9",
".X c #7767E7",
"XX c #657AE7",
"oX c #7777E6",
"OX c #6A69F5",
"+X c #7769FB",
"@X c #6B79F5",
"#X c #7979F9",
"$X c #837CDE",
"%X c #8777FD",
"&X c #8876F1",
"*X c #6983BC",
"=X c #5685C9",
"-X c #5A86D9",
";X c #5C95D4",
":X c #6888D8",
">X c #6698D9",
",X c #718FCD",
"<X c #5A89E8",
"1X c #6787E9",
"2X c #788BE7",
"3X c #6B97E6",
"4X c #7796E7",
"5X c #6688F8",
"6X c #7886F9",
"7X c #6A97F9",
"8X c #7897FC",
"9X c #6BA8E9",
"0X c #78A7E8",
"qX c #7CB6EB",
"wX c #78A6FD",
"eX c #7BB5FB",
"rX c #69A4F6",
"tX c #6AA1D6",
"yX c #7DC4F6",
"uX c #8B8AD9",
"iX c #88A3D8",
"pX c #8899E9",
"aX c #9497E7",
"sX c #8587FF",
"dX c #8898F9",
"fX c #9799FC",
"gX c #968BFF",
"hX c #88A8FA",
"jX c #96A9FD",
"kX c #88B7FE",
"lX c #98B8FD",
"zX c #88B3E9",
"xX c #A5ADFE",
"cX c #A7BBFE",
"vX c #B3B9FF",
"bX c #89C5FA",
"nX c #98C8FE",
"mX c #97D7FE",
"MX c #89C9EE",
"NX c #A5C5FE",
"BX c #B7C9FF",
"VX c #A6D5FF",
"CX c #B8D7FF",
"ZX c #A0C3ED",
"AX c #A7E6FF",
"SX c #B8E7FF",
"DX c #B9F9FF",
"FX c #C7DAFF",
"GX c #C8E8FF",
"HX c #D4EAFF",
"JX c #C5FBFF",
"KX c #D5FEFF",
/* pixels */
"                      X     X X X       +     X     X X X X X X X X X X % @ @ @ @ @ @ @ @ X o X X X X X X X @ X X X X X                               ",
"        +           X   X X X           :     X X X X X X X X X X X X @ X % @ @ @ @ @ @ X X X . X X @ X X X X @ X @ X X X X X                         ",
"                    X X X X X X     X o X X X o X X X X X X X X X X @ X @ @ @ @ @ X X X X X . X X @ X X X X X @ X X X @ @ X X                         ",
"                    X   X X X X   X X X o X X $ @ @ @ X @ X @ o X X O @ @ @ @ @ @ @ # o X X o X o X X X @ @ X X X @ @ o O X X           X             ",
"              +     X   X X X X @ X @ @ @ X % * @ @ @ @ @ @ @ # X X X @ @ X @ @ @ X # # o o X o # X X # $ # X X X @ X X X @ X X                       ",
"            : ; X   X X X X X @ % % @ @ @ X @ * % @ @ @ @ @ % % @ # % # % % & # o # # o # o . X @ @ @ = * # @ X @ @ X X X X X X   X X X X   X         ",
"            + :   X X X X X @ X @ @ % % % % @ @ @ @ @ X @ @ * * & & & < < < < - & & # # # # # - 5 % X = * $ @ = X @ X @ X X @ X X   X   X     X       ",
"              X X X X X @ @ X @ % @ @ = = $ @ @ @ @ @ % % % < < 2 , , 7 7 6 6 6 6 6 & & & & 5 9 0 % @ % * = # ; X @ # # # % X X X     X   X           ",
"            X       X X @ @ @ X @ @ @ @ j X $ @ @ % = < > % , f f w p w 2 f d u s u > 6 s , s g 0 % % 9 < * ; @ q q 9 ; & X @ #   X X X X     X X     ",
"          X   X X X X X X X X X @ % = 9 q @ @ @ % * 6 e u u u i k z J J c x x H x H n t y 2 n i 1 e N q 6 g Y Y 9 ; # # # # @ X X X X   + X X         ",
"      X X       X X @ @ X X @ @ @ % 9 j < @ = 4 < 3 d d n M m c B E } { ~ D D ' ' l z ' ] I G l r ..n.o.X.Y s # 5 # X X # # # X X X X X X X           ",
"          X X X X X @ o @ @ @ @ @ $ 8 U = % 3 3 e t x M S C T E T 0.h.<.[ =.[ ) B C ( g.t.R W [ }  .F 1 1 1 > % * # @ @ # # & # X X X X X   X     X   ",
"          . X + X X X @ @ X @ * % > 4 O.> 3 d d n c c T T T Q ,.3.q.k.,.>.=.Q =.=.u.h.1.;.;.t.:.{ | S r n N 3 , & & # # # # # # X X X X X X X       X ",
"      X X   X X X X X X @ @ @ % 2 > 2 X.u d N M S G D ^ ^ @.$.w.D.7.8.5.5.>.+.w.^.T.u.u.h.z.u.Q [ ~ V l m r 1 2 , , - # # @ # # @ $ o X     X X X     ",
"    X X X X X X @ X X @ * * $ % 3 1 a X.N N N S D ^ ^ =.,.7.F.J.D.P.P.7.7.8.8.W.H.G.G.H.G.4.&.&.Q T T D S n f f 7 & & & & # # @ # o X X X X X X X X   ",
"X   X   X + X X @ X X # 9 9 9 , 2 e n o.I G F W E -.3.3.6.J.].P.M.OX Xm.7.G.W.8X!.!.G.Y.Y.z.V.a.u.<.;.[ W F S r u 7 , & - - & # @ o @ X X X X   X   X ",
"    X X   X X   o X o # # , 7 h p p o.L n L ` Q >.e.N.B.[.+XK.`.G.H.T.G.W.7XeXrXrX9X9XrXkXbXeXeXwX8X5XW.i.<.Q D v v p 7 7 - & , @ o o X @ X @ o @ X X ",
"  + O O @ $ $ o . X X o & & 2 p p  .] N I Z [ <.e.].N..X#X`.L.V.i.c.2XhXVXSXAXMXyXyXyXyXeXrXrXrX7X7X7X8XdX&Xc.0./ J h p 7 7 , & @ @ @ X O @ X X @ X X ",
"    O X X $ @ O + X X # - 7 w p J g.I A | W =.k.L.].+X+XOXE.p.~.,XZXGXKXJXAXmXzXyX9X<XQ.A.A.Q.Q.Q.E.E.E.U.^.l.0.{ / p p s 6 , & X X o # @ @ X X X X   ",
"  +   X X @ @ X o # X * 7 6 p t D n._ Q [ =.e.I.+X[.#X XG.-X;XbXSXKXKXKXAXMXMXMXyXyXrXrX<XQ.Y.V.V.z.G.z.q.q.0.0. ./ K K f 9 * & @ X @ @ @ X X X X X X ",
"  O @ X @ @ @ X @ @ $ < 6 u i B ) p.p.1.=.q.F..X.X#XOX5X<X9XAXAXDXAXbX0XqXbXVXSXAXDXSXDXCXNX0X1X/.T.l.q.q.q.0./ { / J H h 9 * * = $ # X X @ o @ @ @ X ",
"+ O O X X @ @ X X @ & 6 u r c C &.V.G.k.>.l.U..X#X6X5X8XmXAXAXmXtX>X>X0X3X;X=Xv.=X*XiXlXCXFXGXFXvXxXaX_.^.x.l.0.0.^ J H f 6 8 * - = @ @ X X @ @ $ $ X ",
"    X X X @ @ X @ % < u p x S Q 2.S.D.L.l.l.$X$XpX4XkXeXmXmX;X=X-Xs.y.r.` L L | ) ;.t.j._.hXBXFXBXBXFXxXfX$XU.l.0.-./ ~ N d < < * = % @ @ @ X @ o X   ",
"  X X @ @ $ = = @ * 3 p x c D Q m.|.m.I.$Xl.uXuXpXNXkXnXmX=Xy...r.R Z b b b b b l E ) [ t.x.:XpXBXvXxXxXvXvXfX$Xw.0.=.W J N s < & & % @ @ X X X X X X ",
"    X @ @ @ @ % % % N e c D ^ @.'.'.'.].I.uXaXjXlXnXNX0Xs._ R Z 8 8 4 4 y w r k r r l D Q =.z.XXhXNXcXzXhXdXsXjXgXF.>.^ ~ S w f 6 5 @ % @ X ; X X X X ",
"  X X @ @ @ % = = > d r S E ^ ,.'.[.].L._.aXxXvXcXbX0Xv.` Z l y = O @ % % & , , , , 1 t l R ;.d./.lXBXjX2X4X2X6X#XdXH.1.Q V / 1 , 7 % 5 * X @ X X   X ",
"X X X @ @ % * < 3 4 n k ~ Q @.3.I..XU.F.$XxXBXBXnX4Xs.` z y u & % % o . . . . . o o % = % 4 8 L ..=XnXnXpX3X4XXX{.L. Xk.@.[ z H d 6 % 5 < X X $ X     ",
"O X X @ @ % > 4 g f I m ~ =.-.5.$X.X^.U.aXBXBXNXdXj.) G k , # o @ o . . . . . . . . X + O O + 8 b y.,XNXNX0X!.1X6X{.K.(.F.^ ~ J u u % & * @ X $ X   X ",
"X X @ @ @ @ % = g P ] V ^ =.e.q.&X$X^.^.vXHXBXaXc.| V v p @ + . . .   + . . . .   +       + $ 4 b ` y.tXSXlX=X!.XX}.K.Z.5.=.[ J w 6 6 % & * @   X   X ",
"  X @ @ @ % % > e N ] D W ,.k.l.&X.X^.).FXHXvX_.:.~ v p & o +           .                 X @ > y Z L n.ZXGXjX3X8X6X8XL.u.5.! B I P P , @ * $   X   X ",
"X X X @ @ % = 3 3 e } [ Q ,.F.F.%X@X X:XHXFXiXg.' H p 7 # o +           +             X + # # , z z L ..uXGXHXkXQ.XX}.8X6XH.c.g. .P U h @ @ # X X + + ",
"X X X X @ > 3 s a y } } Q =.L.L.#X@XXX2XHXBXb. .H p 7 7 .     +     +     +         X X X # # % t 1 n ] d.BXKXlX~.V.G.G.G.z.>.[ m 2 U U > @ # X + X X ",
"X X X @ % , < w x J | h.c.&.z.XX1X8X}.dXFXcXf.' x 3 =       X @                               X @ > a ( u.2XKXKXqX~.Q.Z.Z.L.3.@.~ k ] U > @ * X o X @ ",
"X X @ @ @ & , e x r g.:.h.5.T.1X}.7X@XjXFXaX0.F t 3 O   +   X @                                 X @ 4 A 5.).VXGXmX~.{.}.m.M.B.%.T y I U 6 @ X X X X X ",
"X X X $ @ & , , n w | f.=.u.z.XX-X7X1XlXFXb.' c r 2 + +     X @                                 X % 4 n =.W.zXCXVX!.Y.XXD.6.F.e.[ z m P g < X @ @ X X ",
"    X o o # * , n m V f.;.<.i.}.<X7X4XvXFXb.~ m w >     +   X                                   # @ = a ) T.,XVXhX7XV.p.W.w.3.l.f.F y e g q @ # ; # X ",
"      + : # & , i x F ) x.;.i.W.1X7XtXnXBXb.F m w %   .                                         - & # 3 ) ^.,XNXhXwXQ.a.T.F.+.5.0.' d 1 0 q @ o ; # X ",
"    + + X $ & < 3 x ' B h.z.>.G.5X7X0XnXNXc.W x r >   .   + +                                   # # # 3 ~ c.4XlXjX7X<Xp.i.H.#.@.' J N 4 > < o - # X X ",
"      + o @ * 3 e S ' ^ =.(.&.D.|.rXzXmXnXc.' z w & . .       +                                 o # - 2 ( x.hXjXwX5X5XV.4.z.5.Q G b N 3 % $ X $ X X X ",
"  X   X @ @ & 3 e S W :.5.H.P.W.A.rXbXVXVXb.[ z w & . .     + +                                 . # 7 p ^ h.lXjX7X7X}.A.i.i.h.W W y e 3 4 $ X o o X X ",
"X @ @ @ $ < 5 3 t c E -.h.D.P.{.E.<XbXSXVX*X;.Z 2 @ o o .     +                                   $ 1 z ^ ).jXlX5X8X|.E.Z.4.=.g.m b a 4 = @ X   X X X ",
"@ & % @ @ < 4 2 y V W @.,.7.M.P.}.A.0XDXVX,Xa.Z e % # # .               + . +                   . 5 w C >.).cXjX}.7XQ.|.C.4.' ] ' m e 3 < @ X + X X X ",
"@ % @ @ @ * < w y c C @.k.U.P.7.5XY.3XSXJXzXs.` y % & #     +             X X                   O = y =.5.2XBX0X}.5X|.S.K.&.( N ] N e 3 * X X X   X X ",
"@ @ @ @ @ * 3 3 n l B [ l.(.I.P.#X6X3XnXKXAXv.;.b 1 1 & . . +                                 X = > B 1.z.dXCX>XQ.}.}.S.'.&.( d ] N e 4 = o   X X X X ",
"% & @ @ @ < 0 0 f m G Q =.3.F.OX6XdX1X0XDXJXtXy.R b t < . . X           X   X                 @ g y _ j.R.cXcX!.|.|.}.a.S.&.( n L N e % @ $ o   X X X ",
"X @ @ X @ $ * = s n A W [ @.3.F.sX6X).R.zXDXAXv.) B y , X     X     X X           X       X O = a b t.c.2XCXwXY.S.|.<X2.i.>.' m m N e = $ $ $     X X ",
"X X X     O @ @ 3 e k E @.=.-.3..X X!.~.=XmXAXqXa.) y * o . X @ X               X X     X X $ = y _ v.).jXNX<XA.S.|.!.y.7.>.W m x a 3 4 % $ o o X X X ",
"X X X X X : $ = % u x l C ^ ,.q.w. X1XQ.-X9XmXAX1Xy.b s 5 & & & @ X X X X     X X     X @ = * a Z v.>XpXNXlX<XV.S.|.}.&.<.>.D m d e 2 4 @ X   + X X X ",
"X $ ; $ X X # = 6 6 t c G Q -.h. X{.{.|.1X7XkXbXVX>X..b a a r w & X X X o . .   +   O 8 8 y b Z s.;X>XkXvX2XW.K.C.|.S.2.<.T ' n f 6 < % @ X @ X X X X ",
"X @ * @ X X # & & > w c A C Q ;.K.{.6X6X@X}.4XkXVXbXtXd.( m z p , # # = - # X X $ @ > a z B ` a.9XeXzXkXjX2XG.D.C.|.S.2.*.C J d 6 5 & % % # @ $ X X X ",
"X @ o o X # @ % % > w n A A C ) <.V.6XdXdX8X8XhXlXmXMXtXn...' J u * % % % % 4 a > y b Z R *.Y.kXkXkXkXdXsX).7.Z.m.S.C.&.+.C J p < & % @ % # $ # X     ",
"X X X X X o X X & , e i k A W ) *.<.i.).dXxXlXjXlXNXCXZXiXb.n.X.I N N N b y a y b ` _ *.y.;XlXmXeXwXhX2X2XI.i.D.m.'.m.&.Q V H 0 , & % % X # X X X X X ",
"X X X X @ o o @ & & , w t x G ( ) ) >.u.c.oXfXvXNXCXCXCXFXBXaXb.f.} ` R Z ` ` _ s.s.v.=XqXAXmXwX8X8X6X6X.XF.M.7.m.Z.2.+.R m g 6 5 & & @ @ X X X   X X ",
"@ X X @ @ o o @ X % , 3 e x n S ( ( ) =.1.l.U.$XdXjXcXBXFXHXFXBXNXjX2X:X,XtX9XeX9X9XyXmXAXmXqX;X5X6X@X#X Xw.7.9.7.7.&.Q B n s 5 < * % @ @ X X X   X X ",
"X X X X o X X o # # * < e e a n F ( ~ =.0.q.e.q.F.^.oXpXjXcXCXFXGXSXGXSXAXmXyXyXmXmXAXAXbX9X-X1X6X+XOX[.J.e.e.3.3.5.Q R k f 5 - < & % @ @ X @ X X   X ",
"@ X X @ X     X X @ % % < 3 e d m F ^ -.,.e.B.N.F.H.H.T.W.!.).4X0X0XzXMXqXqXmXAXDXDXmXeX<XQ.Q.E.6XOX+X].w.e.9.$.>.1.T A r p - # 5 < @ @ X X X X   X   ",
"X @ X X o o + o o o # & * 6 6 e c J -.0.l.F.B.U.J.I.].(.L.W.W.Q.v.3X;XtXMXAXDXJXDXnX-XQ.W.K.`.%X[.[.[.N.e.3.$.%.@.Q C c i 6 - o 9 5 5 @ @ X X         ",
"X X X X o o o o X X X # & & < 3 p C ~ -.l.I.&X&X%X%X&X&X6XdXdX8XwXwXeXbXmXDXDXMX0XR.Q.W.K.OX%X[.].].J.e.9.$.#.^ ^ D c p , , $ o @ & @ @ @ X X   X X   ",
"X X X X X X . o X o o # @ @ & 3 p p C E %.3.l.U.&X&X%XgXgXdX8X8XwX7XrXeXkXbX0Xv.~.).L.P.`.+X[.N.N.B.e.3.$.$.%.T C v r , & # $ o X @ @ X X o X X       ",
"X X X X X X X o . o # # # # * 6 p v v C D ^ %.$.$.$.e.w.k.G.W.5X@X5X5X<X4X:Xy.u.z.].L.N.[.].B.B.e.$.$.%.%.^ ~ D v v w , & $ $ $ @ & = @ @ # O         ",
"X X X X X X o o o # # # # # & 5 7 7 p x G W ^ ^ %.^ %.-.q.h.H.W.!.!.R.~.R.j.=.i.w.m.N.[.N.B.B.9.$.%.@.^ ^ T C c p p 7 - # # $ $ % & $ @ @ @ O         ",
"X X X X . X o . o o o # X # & - # - 7 w r k S D J D / { -.:.<.t.p.*.a.t._ ;.>.3.B.N.N.N.9.9.$.#.@.^ ^ / T V l r 2 & - # # # # # X % @ @ o O o   X     ",
"O X X X X X o X o o # o # # # # - ; 9 8 e a i x v K K / D W t.j.;._ h.;.T =.,.3.J.[.B.%.#.+.D ' T ~ T T V V x 1 , & # o o X X @ @ @ @ X X X o X       ",
"    X     X X . o o o # # # # # X o ; 0 g s u w K p K K M c l R W j.c.) Q -.@.q.B.9.+.^ T C H n C C C v k M i 2 & # # # # o @ X @ @ @ X X X X X       ",
"X       X o X X   X X @ # o @ o @ @ @ * 8 3 3 3 3 > u M i r I g.g.0.' D ~ ~ ^ ~ ~ T D ~ J M n i n f r 2 w 6 7 & # # # # o o o X X X X X X             ",
"X   + X : : o   X   X # @ o X X @ * 3 @ @ % h X.P g 2 > 1 M P I J I M x c A S J V v x M N i w u 2 7 , , , , & & @ # # X o X o X X X X X   X   X       ",
"      + o X X   X X X X o @ X @ = 9 q q q h Y X.U Y P P P U U p w n x x x x x M v t w w e 2 > 2 > % & , > @ @ & % # @ X X X X X X         X o o       ",
"      X           X   X X X X X X @ = q j j q < < g P P P P f > 1 u f e i u u i N u , 1 > % % * , % % , & @ @ & @ # o @ X o o X X X   X   X O O       ",
"    + X     X :     X X X o X X X X X $ * = % X @ @ < 3 % % % % < 0 3 > 3 3 , 4 q 5 % % % @ * ; 5 # X & & % X # # # o @ o @ X X o X X       X X       ",
"  X         X o X   X X X X X X $ @ % @ @ @ % $ = X $ * % @ * * < * @ @ = * % % * % @ X % $ $ * 9 @ X X # @ X X @ @ @ o o o X X X X     X     +       ",
"                X       X     X @ X X X $ = $   @ X X $ $ @ @ X ; * @ X # * = X @ X X X X O O O o X X X X X X X X X X X X X X X X   X                 ",
"    X + + X       X     X X X X X @ X O X X $ $ X   O X     o X * = X X X $ @ X X X X X X + X     X + X X X X X X   X X X X X                         ",
"                          X   X X X X X $ $ $ : X   O         O X ; X X X X X X X $ @ X X X X X           X     X   X X X X X X o +                   ",
"                          X   X X X X X   X O X   X     X       = 9 $ @ @ X @ X X X O @ X X X X +     X   X X       X     X X   X X X                 ",
"                        X     X X X X X X     X X   X   O   X   @ ; % @ % X X X X X X @ X X X X X           X         X   X X X   +   X               "
};
