/* XPM */
static char *pngwing_com1712609157[] = {
/* columns rows colors chars-per-pixel */
"60 60 232 2 ",
"   c None",
".  c #357656",
"X  c #327157",
"o  c #1A4A7A",
"O  c #1D4F77",
"+  c #1E5276",
"@  c #265C6C",
"#  c #215572",
"$  c #225878",
"%  c #2B6565",
"&  c #306F6E",
"*  c #5BB619",
"=  c #5FBE0F",
"-  c #61BF15",
";  c #47933D",
":  c #438E3E",
">  c #57AB2B",
",  c #5BAE30",
"<  c #62B82C",
"1  c #64B739",
"2  c #67CC02",
"3  c #69CE05",
"4  c #68CA0B",
"5  c #6ED10A",
"6  c #6BD104",
"7  c #71D30E",
"8  c #6AC719",
"9  c #74D514",
"0  c #75D51A",
"q  c #78D718",
"w  c #7BDA1C",
"e  c #78D816",
"r  c #71CD1D",
"t  c #6BC328",
"y  c #72CD24",
"u  c #7EDA22",
"i  c #7BD627",
"p  c #6BC338",
"a  c #76CC38",
"s  c #7BD337",
"d  c #6ED021",
"f  c #3D834F",
"g  c #3C8677",
"h  c #3E826F",
"j  c #4B9447",
"k  c #478F50",
"l  c #58A749",
"z  c #59A850",
"x  c #65B947",
"c  c #6BBC5A",
"v  c #4A986D",
"b  c #56AA78",
"n  c #54B570",
"m  c #68B865",
"M  c #69B575",
"N  c #68C24B",
"B  c #71C751",
"V  c #76C86F",
"C  c #5BC05C",
"Z  c #82DD24",
"A  c #83DD2A",
"S  c #88DD37",
"D  c #86E02B",
"F  c #8CE138",
"G  c #81DE1F",
"H  c #87D942",
"J  c #8EDA56",
"K  c #95E248",
"L  c #9CE354",
"P  c #9EE359",
"I  c #A2E65D",
"U  c #84CD74",
"Y  c #87D16E",
"T  c #ABEA6B",
"R  c #A7E766",
"E  c #AEEA72",
"W  c #AAE673",
"Q  c #B3EB7B",
"!  c #B0EB76",
"~  c #B5F07A",
"^  c #1A4E83",
"/  c #194F88",
"(  c #1A5186",
")  c #1A538B",
"_  c #1A5692",
"`  c #1A5896",
"'  c #1A5B9C",
"]  c #18579A",
"[  c #215F8C",
"{  c #1E639C",
"}  c #25678B",
"|  c #236797",
" . c #2E778F",
".. c #1A5EA2",
"X. c #195FA8",
"o. c #1B61A6",
"O. c #1A63AB",
"+. c #1E69AA",
"@. c #1A66B2",
"#. c #1A69B6",
"$. c #1B6CBC",
"%. c #2369AB",
"&. c #2572A8",
"*. c #256EB6",
"=. c #2C75B8",
"-. c #3378B9",
";. c #377BA7",
":. c #1B6EC2",
">. c #1C71C6",
",. c #1C73CA",
"<. c #1D79CD",
"1. c #1B7AD9",
"2. c #2176CA",
"3. c #2778C8",
"4. c #377EC4",
"5. c #2A7ED1",
"6. c #267BD1",
"7. c #327ED2",
"8. c #1A7EE3",
"9. c #398891",
"0. c #388AAC",
"q. c #3CA5B0",
"w. c #49978D",
"e. c #50AC98",
"r. c #6BB58B",
"t. c #4992AD",
"y. c #47ABAB",
"u. c #52A5AB",
"i. c #64B1AE",
"p. c #7ECC97",
"a. c #3B84CB",
"s. c #2D81D4",
"d. c #2286DB",
"f. c #3A8CDD",
"g. c #3586D7",
"h. c #2994D9",
"j. c #328ECB",
"k. c #1B83E9",
"l. c #198BFB",
"z. c #1D90EF",
"x. c #3C8EE1",
"c. c #3F91E4",
"v. c #228DE6",
"b. c #38A1D2",
"n. c #4589CA",
"m. c #448CD3",
"M. c #478ED5",
"N. c #4A93DA",
"B. c #569ADE",
"V. c #5396DB",
"C. c #5098C5",
"Z. c #5CA7CF",
"A. c #6CB0D2",
"S. c #4394E5",
"D. c #4C9CEC",
"F. c #4998E5",
"G. c #569DE4",
"H. c #4E9FF0",
"J. c #5AA2E9",
"K. c #54A3F2",
"L. c #5BA9F6",
"P. c #5CAAF7",
"I. c #5AB0E2",
"U. c #65A8EB",
"Y. c #65ADF5",
"T. c #65B1FD",
"R. c #6CB5FE",
"E. c #6DB1F5",
"W. c #74B4F4",
"Q. c #74B9FE",
"!. c #7CBCFD",
"~. c #72B6F9",
"^. c #75B7E9",
"/. c #7EC1E9",
"(. c #86CD8A",
"). c #92D78A",
"_. c #B6EB81",
"`. c #B9ED86",
"'. c #BDED8B",
"]. c #BDF188",
"[. c #B9EA97",
"{. c #AAE38C",
"}. c #90D0AF",
"|. c #A9DFAE",
" X c #B3E4B3",
".X c #C1EE93",
"XX c #C4EE9B",
"oX c #C3F194",
"OX c #C6F29A",
"+X c #C9F39C",
"@X c #C0F08E",
"#X c #CBF2A3",
"$X c #CEF2AA",
"%X c #C7F3A8",
"&X c #D1F5AD",
"*X c #D2F8AA",
"=X c #C7EDB7",
"-X c #D4F4B3",
";X c #D6F5BA",
":X c #D9F6BD",
">X c #D8F8B9",
",X c #C8F0AF",
"<X c #80BFFD",
"1X c #91CFD0",
"2X c #A6D9D2",
"3X c #B9E3D6",
"4X c #B8E6C1",
"5X c #84C1FE",
"6X c #8CC5FF",
"7X c #93C9FF",
"8X c #9BCDFE",
"9X c #98CDF4",
"0X c #8DC9E9",
"qX c #A5D2FF",
"wX c #ADD6FE",
"eX c #A6D4F5",
"rX c #B6DBFD",
"tX c #A9D8EC",
"yX c #BAE0E4",
"uX c #DCF7C4",
"iX c #D9F5C7",
"pX c #C7EBD6",
"aX c #D9F2D7",
"sX c #CBEDCD",
"dX c #E2F9CB",
"fX c #E1F9C8",
"gX c #E7FAD7",
"hX c #C8E7E8",
"jX c #D2EDE6",
"kX c #C8E4FA",
"lX c #D9EEF2",
"zX c #ECFAE3",
/* pixels */
"                                                l.h.z.z.k.k.8.8.8.1.1.2.                                                ",
"                                          l.l.z.q.C y.q.y.q.h.k.8.1.1.3.b c i                                           ",
"                                    l.l.z.h.y.V I I ).}.^.^.E.U.G.G.M.n.b i u w u u                                     ",
"                                l.l.z.h.i.).{.2X4X[.'.].[.0X!.W.W.W.U.B.U.i.r.S u u u u                                 ",
"                            r m z.b.p.|. X X2X7X0XXXoX.X'.[.0X!.B.<XB.V.U.B.B.i.V F A Z G G                             ",
"                          9 0 u.I.[.+X#X#X#X4X8XeX=X+XXXOX[.2X!.<X<X<X0X1XU.B.V.C.Y F A Z G G                           ",
"                      0 q q S {. X$X$X$X=X=X=XeX8X3X#X#X#X X5X5X<X<X<X}.W }.U.V.V.C.r.Y S A G r w                       ",
"                    9 q w L XX#X-X-X-X-XyXsX;X3XeX3X&X%X%X2X6X6X<X<XU.<X}.}.A.B.V.C.M.t.w.m A G w w                     ",
"                  9 9 u R #X$X-X-X;XiXpXrXsXiXsXwXtX=X&X,X9X7X6X<X<X<X<XU.U.U.B.V.V.t.(.t.t.c A w 0 0                   ",
"                d e u E $X$X-X;X;X;XiXkXjXuXiXhXrXwXpX-X-X9X7X6X<X<X<X<X^.U.U.B.V.V.C.r.J w.;.c Z w w 0                 ",
"              n n i ! %X$X-X-X:XaXhXjXkXhXjXjXrXrXwXwXpXsXeX7X6X<X<X<X<XU.U.U.B.B.V.M.n.J K m m A w w w 9               ",
"            h.q.N R #X$X-X;X:XsXkXkXkXgXgXjXkXkXrXrXwXqXeX8X8X6X<X<X<X<X<XU.U.B.V.V.n.n.M K F c N u w 0 q 0             ",
"            l.e.L OX#X$X-X;XaXkXkXkXlXzXzXzXjXhXrXrXwXqX8X8X8X6X<X<X<X<X<XU.U.J.B.V.n.n.4.M M m x G w q 0 q             ",
"          l.h.V '.#X,X-X;X:XaXkXkXkXlXzXzXgXgXgXrXrXwXqX8X8X8X6X<X<X<X<XW.U.U.G.B.V.M.n.n.-.=. .x A G w q q 9           ",
"        k.l.e.! XX#X$X-X;X:XiXjXkXkXlXzXgXgXgXdXhXrXwXqX8X8X7X6X<X<X<XW.E.U.U.G.V.V.n.n.4.-.*.%. .v Z w y w e 7         ",
"        k.h.Y oXXX#X$X$X;X:XuXdXzXkXlXzXgXgXdXdXdXhXqXqX8X8X6X6X<X<X<XW.W.U.U.G.V.V.M.n.4.-.*.%...} 1 Z . j r r         ",
"      d.8.u.Q .X[.#X$X-X>X>XuXfXaXjXgXgXgXdXdXdXfXiXrX8X9X7X6X6X5X!.Q.~.E.U.J.G.V.N.m.a.4.=.%.%.' v p u & ^ . , >       ",
"      k.8.(.`.[.XX#X#X$X-X;X:XuXuXjXdXuXdXdXdXuXiXpXtX9X7X7X6X!.5X!.Q.E.Y.Y.G.G.V.M.a.a.4.=.*.%.| x Z w k ( o % @       ",
"    1.k.f.Q '.[..XXX#X$X&X>X;X:X:XfXuXuXuXiXpXpXqX3XiX9X7X6X6X!.!.Q.E.E.U.U.G.G.N.m.a.a.4.*.*.o...& Z G 1 $ X % o o     ",
"    1.k.C._._.'..XXX#X#X$X&X-X;X:X:X:XfXuXsXsXeXqX3XsX3X6X6X!.!.Q.Q.R.Y.L.J.H.V.N.m.a.4.=.*.%.....| z G y & < > o j     ",
"    1.d.(.Q _.'..X.XXX#X%X*X*X-X-X>X>X>X>X:XiXtX3X9X7X9X!.6X!.Q.Q.E.E.Y.J.G.G.S.M.g.4.3.*.+.O...' ] & s 1 f 0 r k >     ",
"  <.8.0.W ! _._.'..XXXXX+X*X$X*X&X-X-X>X>X>X-X-X2X6X6X6X!.!.Q.Q.R.T.Y.L.K.D.N.N.f.a.3.$.#.O.o...' ` _ & k y 0 q 5 8 5   ",
"  1.1.r.R ! Q _.`.@X.XoX+X#X%X*X$X*X*X*X*X4X3XtX6X!.!.!.!.Q.Q.R.T.Y.L.J.G.F.S.m.a.2.$.$.#.O.X...] ` ) / ; G q 9 7 7 4   ",
"  ,.1.V R W W Q _.`.'..XoXoX+X+X#X*X#X*X$X9X5X5X!.!.!.Q.Q.R.R.R.Y.Y.K.H.G.F.M.g.2.:.$.$.O.O.X.' ' _ ) / l e q 9 9 5 5   ",
":.,.6.U R R W W _._.].].[.].OXOX+X+X+X%X X5X!.!.!.!.Q.Q.R.R.T.T.P.K.K.F.F.N.g.<.>.$.$.#.O.o...' ` ) ( / l e w 9 7 5 5 4 ",
":.>.0.Y P R T E E _._.`.].].oX[.+XoX+X2X!.!.!.Q.Q.Q.R.T.T.T.P.L.J.H.F.F.N.f.6.,.:.$.#.@.O.X.' ' ` ) ( ^ j e 9 9 9 5 3 3 ",
":.:.3.U P I R R E E ~ ~ ].].].].].oX X/.!.Q.Q.R.R.R.T.T.T.P.L.K.D.D.S.S.f.6.,.:.:.$.#.O.O.X.' ` _ ) / ^ j e q 9 7 5 4 2 ",
"$.$.3.r.L P I R T T E ~ _._.].].].].1XR.R.R.T.T.R.T.T.P.L.K.H.H.F.S.S.x.5.,.,.:.$.#.@.O.o.' ' ` ) ( / # t e 9 7 7 5 6 3 ",
"#.#.4.r.K L P P I T T T ~ ~ ~ ~ ].].|.T.T.T.T.P.P.P.K.K.H.K.H.c.S.f.f.s.,.,.:.$.$.#.O.O...' ` ` ( / ^ # < w 9 9 7 5 3 2 ",
"@.*.:.M K K L P I I T T T T ~ ~ ~ ~ /.P.P.P.L.L.K.K.K.H.H.b.D.c.x.f.s.2.,.:.$.$.@.O.O.X.' ' ` ) / ^ ^ @ y w 9 7 5 5 3 3 ",
"O.#.:.u.H K K L L I I T R T T E ~ ).I.I.K.H.H.H.H.H.D.D.S.x.h.x.g.s.<.,.:.:.$.#.O.O.....' ` _ ) / ^ o @ r q 9 5 7 6 3 2 ",
"X.@.*.;.J H H K L L L I I I R T W A.H.D.D.H.H.D.H.c.c.c.x.x.x.d.5.6.,.:.$.$.$.@.O.O...' ' ` ) ( ^ o o % r 9 9 9 5 4 2 2 ",
"X.X.*.-.c H S K K K L L L (.(.R ).S.F.c.F.c.c.c.c.c.x.x.g.s.s.6.6.>.:.:.$.@.@.O.o.X.' ' _ _ ) ^ o o o # < e 7 7 3 3 3 2 ",
"X.X.X.&.c B S S F K U u.i.n.f.i.(.N.c.x.c.c.f.f.f.g.s.d.s.5.6.2.>.:.$.$.#.@.@.o.o.' ' ` _ / ( o o o o O < 9 7 7 3 3 2 2 ",
"....o.%.b a A D S H t.7.a.g.j.a.U r.C.g.h.g.g.g.s.s.5.6.2.2.>.:.:.$.#.#.@.O.o.X.' ' ` _ _ ( ^ o o o o # < 9 7 7 3 3 2 2 ",
"` ..o.X. .1 s A S S 0.3.3.3.a.s.u.e.t.s.s.5.6.6.6.2.2.,.>.:.:.$.$.#.#.O.O.O...' ' ` _ ) ( ^ ^ o o o o O > 7 7 3 3 2 2 4 ",
"  ' { ....v 1 u D s ;.2.3.3.3.=.0.0.t.2.3.2.2.,.2.:.:.:.$.$.$.#.@.@.O.O.X...' ' ` ) ) ( ^ ^ o o o o o O < 7 5 3 3 3 2   ",
"  _ ` ' ..X.g r w u g #.#.$.2.9.b V b 0.>.>.$.$.:.$.$.$.$.$.@.@.O.O.o.o...' ' ` _ _ ( ( o o o o o o o o ; 7 3 3 3 3 3   ",
"  _ _ ' ] ' | x w w x &.#.v b &.*.&.b C w.9.0.#.#.$.#.#.@.O.O.O.O.X...' ' ` ` _ _ ( ( ( o o o o o o o o @ - 2 3 = * 2   ",
"    ) _ ] ] ..} x w w v &.N N O.@.@.&.9.0.B m  .9.%.&.O.O.O.O.X.....' ' ` ` ) ) ( ^ o o o o o o o o o o o ; 2 = % :     ",
"    ( ) _ ` ` ' & p w i p i N +.X.O.&.9.+.| %.+.+.%.| %.X.......' ' ` _ _ _ / / ^ o o o o o o o o o o o o @ * f # >     ",
"    / ( ( ) _ _ `  .z p i u a 9. .%.X.X.o.O.X.X.....%.| ..' ' ` ` _ _ _ / ( ( o o o o o o o o o o o o o o O # o X 4     ",
"      / / ( ( _ _ ` ` } } x u i s  .......' ..| ' ' X.{ | ` ` ` _ _ _ ( ( ^ o o o o o o o o o o o o o O o o o o f       ",
"      o o ^ ( ( ( ) ) ` ` | & x D & ] ] ' | v v  .} & v [ _ _ [ / ( ( ( o o o o o o o o o o o O o o o o o o o # >       ",
"        o o ^ ^ ( ( ( ) ) _ _ ) x l [ _ | x S s S s A S h ( ( ) ( ( ( o o o o o o O o o o o o o o o o o o o o .         ",
"        o o o o ^ o ( ( / ( ) ) } l l z z i D D D D A D a z $ $ + o o o o o o o o o o o o o o o o o o o o o + ;         ",
"          o o o o o o ^ o ( ( ( / ^ & k k A Z A D A A A A A a a p % o o o o o o o o o o o o o o o o o o o o %           ",
"            o o o o o o o o o o ^ ^ / ^ $ 1 Z Z Z Z Z Z u Z G Z Z 1 O o o o o o o o o o o o o o o o o o o @             ",
"            o o o o o o o o o o o o o o o j G Z Z u u Z Z u w Z w 1 X j k % % @ o o o o o o o o o o o o O X             ",
"              o o o o o o o o o o o o o O < w G u w w w w w w w w y r e y y 0 t X o o o o o o o o o o o O               ",
"                o o o o o o o o o o O o O < e w w 0 w w w w w q e e q q q 9 9 7 ; o o o o o o o o o o o                 ",
"                  o o o o o o o o o o o o k e e q q q e 0 0 q q e q 9 9 9 9 7 - % o o o o o o o o o o                   ",
"                    o o o o o o o o o o o @ < 9 e e 9 9 9 9 9 9 9 9 7 9 5 7 5 . o o o o o o o o o o                     ",
"                      o o o o o o o o o o o # > 7 7 9 9 9 9 7 7 7 7 7 5 5 5 * # o o o o o o o o o                       ",
"                          o o o o o o o o o o # ; r 7 7 7 7 7 7 5 5 5 5 4 4 ; o o o o o o o o                           ",
"                            o o o o o o o o o o O % ; - 5 5 7 3 4 5 6 3 3 4 X o o o o o o o                             ",
"                                o o o o o o o o o o o % > 3 3 3 3 3 3 3 * . O o o o o o                                 ",
"                                    o o o o o o o o o o # * 3 3 3 2 2 = % o o o o o                                     ",
"                                          o o o o o o o o X = 2 2 2 4 . o o o                                           ",
"                                                o o o o o o X = 2 2 f o                                                 "
};
