/* XPM */
static char *_2d6bfdff6774aa587d52150293d2d0276PXGopPMuQJCFQO[] = {
/* columns rows colors chars-per-pixel */
"60 60 138 2 ",
"   c None",
".  c #2F2E2D",
"X  c #353332",
"o  c #383736",
"O  c #3A3937",
"+  c #3C3B3A",
"@  c #413F3D",
"#  c #41403F",
"$  c #454442",
"%  c #484745",
"&  c #4A4847",
"*  c #4D4C4A",
"=  c #514F4D",
"-  c #52504E",
";  c #58544F",
":  c #545352",
">  c #595755",
",  c #5C5A57",
"<  c #5E5C5B",
"1  c #605E5C",
"2  c #62615F",
"3  c #666462",
"4  c #696764",
"5  c #6B6866",
"6  c #6D6B69",
"7  c #716E6C",
"8  c #73716E",
"9  c #757471",
"0  c #797674",
"q  c #7B7977",
"w  c #7E7C7A",
"e  c #817E7B",
"r  c #84817E",
"t  c #88847F",
"y  c #878582",
"u  c #898684",
"i  c #8C8986",
"p  c #8D8B89",
"a  c #918E8B",
"s  c #94918E",
"d  c #98938D",
"f  c #969491",
"g  c #9A9692",
"h  c #9C9995",
"j  c #9E9C9A",
"k  c #A19B96",
"l  c #A19E9A",
"z  c #A5A19D",
"x  c #A8A39E",
"c  c #A6A3A1",
"v  c #A9A6A3",
"b  c #ADA9A5",
"n  c #AEACA9",
"m  c #B0ABA6",
"M  c #B1AEAA",
"N  c #B4B1AE",
"B  c #B9B4AE",
"V  c #B6B4B1",
"C  c #B9B6B3",
"Z  c #BDB9B5",
"A  c #BEBCB9",
"S  c #C1BCB6",
"D  c #C1BEBA",
"F  c #C4C1BD",
"G  c #C8C3BD",
"H  c #C5C3C1",
"J  c #CAC6C2",
"K  c #CDC9C5",
"L  c #CECBC9",
"P  c #D0CCC7",
"I  c #D2CECA",
"U  c #D4D1CD",
"Y  c #D6D4D1",
"T  c #D9D5D0",
"R  c #D8D5D2",
"E  c #D9D6D3",
"W  c #DBD7D3",
"Q  c #D9D7D5",
"!  c #DAD7D4",
"~  c #DBD7D2",
"^  c #DBD8D4",
"/  c #DBD9D7",
"(  c #DEDAD5",
")  c #DCD9D7",
"_  c #DCDAD7",
"`  c #DDDAD7",
"'  c #DEDBD7",
"]  c #DBD9D7",
"[  c #DCDAD8",
"{  c #DDDBD9",
"}  c #DDDBD8",
"|  c #DFDCD8",
" . c #DEDCDA",
".. c #DFDCDA",
"X. c #DEDCDA",
"o. c #E0DCD7",
"O. c #E0DDDA",
"+. c #E0DDDB",
"@. c #E1DEDB",
"#. c #E2DFDB",
"$. c #E0DEDC",
"%. c #E1DEDC",
"&. c #E1DFDD",
"*. c #E0DFDE",
"=. c #E4E0DB",
"-. c #E1E0DD",
";. c #E2E0DD",
":. c #E2E1DF",
">. c #E3E1DF",
",. c #E4E0DC",
"<. c #E5E2DF",
"1. c #E6E2DE",
"2. c #E6E3DF",
"3. c #E5E2DE",
"4. c #E4E2E0",
"5. c #E5E3E0",
"6. c #E6E5E3",
"7. c #E7E5E4",
"8. c #E8E5E2",
"9. c #E8E6E3",
"0. c #E9E6E3",
"q. c #EBE7E2",
"w. c #EAE7E4",
"e. c #EAE8E6",
"r. c #EBE9E7",
"t. c #ECE9E7",
"y. c #EBE9E7",
"u. c #ECEAE8",
"i. c #EEEBE9",
"p. c #EFEDEB",
"a. c #EFEDEC",
"s. c #F0EFED",
"d. c #F1EFED",
"f. c #F1F0EE",
"g. c #F2F1F0",
"h. c #F5F4F3",
"j. c #F4F2F0",
"k. c #F9F8F7",
/* pixels */
"                                                                                                                        ",
"                                                                                                                        ",
"                                                                                                                        ",
"                                                                                                                        ",
"                                                                                                                        ",
"                                                                                                                        ",
"                                                                                                                        ",
"                                                                                                                        ",
"                                                                                                                        ",
"                                                                                                                        ",
"                                                                                                                        ",
"                                                                                                                        ",
"                                                                                                                        ",
"                                                                                                                        ",
"                                                        G Z Z b z                                                       ",
"                                                    G D b L v V x g l                                                   ",
"                                                  P W N c 8.W a N M h Z                                                 ",
"                                              P W W U b b i.! D H L M D D b                                             ",
"                                          L J L P t.o.Z D ` Y Y J B J Z l N Z                                           ",
"                                      Z U L L =.i.d.w.{ -.| G J F C D F D D V N n                                       ",
"                                    m U Y W D #.k.-.#.p.5.U J Y #.` C D B U r y v s                                     ",
"                                    J C 7.8.G r.g.! L 8.2.U Y { W J m V H H p p u z b                                   ",
"                                    B L | ! 2.` f.` J P &.d.2.U F F H J G L N s l x M                                   ",
"                                  D D G Z -.` r.w.` I U U W L F D { &.U L J A C p k D u                                 ",
"                                G G L { ` U &.p.#.w.2.-.P s f F | / &.K J D V Z z z Z l s                               ",
"                                G B ` L D #.U J ` J i.6.3 3 5 7 e H A A D V V v i 0 t f e f                             ",
"                              C Z J P ` 5.2.8./ { Y J j w 6 w h s z M l C Z N h q 3 5 q 8 u                             ",
"                            M N C C J N i a W p.h.W P i p y c / L D B b z b h j q 7 3 9 9 w :                           ",
"                            M N N P L z a p h j.r.Y S g f c M J 2.U U v l g i y 9 5 9 , 8 9 2                           ",
"                          a A K D Z H n n f s L / U G Z b C J J { r.A j f v e 0 8 6 3 3 4 5 5                           ",
"                          u 5 a P V H C n l n M J Y J M b H J J | K f u s h f 8 0 3 ; < 5 5 7                           ",
"                            y 9 C Z G b k Z L M L J N b f z l s l f j c h f i 9 9 5 1 1 4 5 7                           ",
"                              z n V z U J J F b J G D H Z C c Z n C C C 2 % % 1 q 9 8 , 6 3                             ",
"                              N J C h L a.W Z c I C Z A M N M C F L H 8 % % * 5 9 9 8 3 1 8                             ",
"                                A h z l h z z C D D b N b M v c n M N 2 < < , 9 5 9 0 9 6 8                             ",
"                                6 e r h h d z G G M z f c b z n j f v 6 3 3 6 i > 9 0 w 9                               ",
"                                  9 q y i t z N L b f j n f y g j s y 8 8 8 i , 1 6 q e q                               ",
"                                  a e 9 u i N V C M a j c f a y w q 3 * & & : , 1 6 9 9 0                               ",
"                                    0 7 9 r s 5 i v j j a i w 0 9 5 : = * - * : > 4 1 -                                 ",
"                                    0 w 9 0 5 # $ + u e 9 8 q 6 - = $ : : % $ & : < >                                   ",
"                                      5 5 1 3 5 9 u i 8 5 , 1 : = % $ $ # % = = > > =                                   ",
"                                          & > 2 c M z > : * & & $ & $ + # * - * & $                                     ",
"                                              $ * & * o + + + + + O + X . $ @ + X                                       ",
"                                                # $ X X O + + # * % - = * +                                             ",
"                                                    & + + X + + + & & O                                                 ",
"                                                      + + o X X .                                                       ",
"                                                                                                                        ",
"                                                                                                                        ",
"                                                                                                                        ",
"                                                                                                                        ",
"                                                                                                                        ",
"                                                                                                                        ",
"                                                                                                                        ",
"                                                                                                                        ",
"                                                                                                                        ",
"                                                                                                                        ",
"                                                                                                                        ",
"                                                                                                                        ",
"                                                                                                                        ",
"                                                                                                                        "
};
