/* XPM */
static char *result[] = {
/* columns rows colors chars-per-pixel */
"60 60 225 2 ",
"   c #040404",
".  c #080707",
"X  c #060609",
"o  c #07080A",
"O  c #0B0B0B",
"+  c #050B04",
"@  c #110F0E",
"#  c #041302",
"$  c #051D01",
"%  c #091B04",
"&  c #0B140A",
"*  c #0B1C0B",
"=  c #11100E",
"-  c #131C0F",
";  c #0D0E11",
":  c #070911",
">  c #0D1212",
",  c #141413",
"<  c #181615",
"1  c #1A1916",
"2  c #13141B",
"3  c #181718",
"4  c #171A1C",
"5  c #1C1C1A",
"6  c #141C13",
"7  c #201E1C",
"8  c #0B2402",
"9  c #0C2C02",
"0  c #0B2407",
"q  c #132B0C",
"w  c #132A07",
"e  c #0E3B04",
"r  c #113405",
"t  c #113B03",
"y  c #163609",
"u  c #1B2414",
"i  c #1A2B13",
"p  c #1D231B",
"a  c #1B281C",
"s  c #1D3413",
"d  c #1C3618",
"f  c #23221E",
"g  c #212C1B",
"h  c #253A1A",
"j  c #1C1D21",
"k  c #191C25",
"l  c #201F23",
"z  c #1A2022",
"x  c #1F202A",
"c  c #252423",
"v  c #282624",
"b  c #2C2A25",
"n  c #25252B",
"m  c #28272B",
"M  c #2C2B2A",
"N  c #252C27",
"B  c #312E2A",
"V  c #2A3727",
"C  c #34322D",
"Z  c #333B2A",
"A  c #2B2B33",
"S  c #272B35",
"D  c #343333",
"F  c #383632",
"G  c #3D3B34",
"H  c #32333A",
"J  c #3D3A38",
"K  c #303038",
"L  c #423E39",
"P  c #184509",
"I  c #1A5505",
"U  c #1B5209",
"Y  c #1E5B08",
"T  c #21460C",
"R  c #235C0A",
"E  c #29481A",
"W  c #2C531B",
"Q  c #2C5C1A",
"!  c #275613",
"~  c #315D1C",
"^  c #30501C",
"/  c #1D6306",
"(  c #256D01",
")  c #2B6B0E",
"_  c #246608",
"`  c #2C740C",
"'  c #2C7B0A",
"]  c #277508",
"[  c #2B6616",
"{  c #32641C",
"}  c #346D1B",
"|  c #37641B",
" . c #2D7817",
".. c #337C15",
"X. c #34701A",
"o. c #39741C",
"O. c #347D1B",
"+. c #367716",
"@. c #2C4526",
"#. c #3B4B2D",
"$. c #364728",
"%. c #2C5121",
"&. c #335225",
"*. c #37582A",
"=. c #394833",
"-. c #3C5833",
";. c #3C622B",
":. c #396725",
">. c #3B7429",
",. c #45423C",
"<. c #46483A",
"1. c #465838",
"2. c #42692C",
"3. c #447B2B",
"4. c #476635",
"5. c #517A36",
"6. c #363A42",
"7. c #4B4641",
"8. c #4E4A43",
"9. c #514C46",
"0. c #534F48",
"q. c #55524A",
"w. c #5A554E",
"e. c #5B5A4D",
"r. c #5D5851",
"t. c #4D5240",
"y. c #625C55",
"u. c #586248",
"i. c #676259",
"p. c #7C766C",
"a. c #706A61",
"s. c #2E870C",
"d. c #338405",
"f. c #318B04",
"g. c #338C0E",
"h. c #34870D",
"j. c #359403",
"k. c #36930D",
"l. c #3B9D0B",
"z. c #389706",
"x. c #2C8619",
"c. c #3C8D15",
"v. c #388718",
"b. c #369211",
"n. c #3B9313",
"m. c #3A9B15",
"M. c #3C9519",
"N. c #3BA301",
"B. c #3CA30D",
"V. c #3AAA07",
"C. c #3DB705",
"Z. c #39A615",
"A. c #3DB516",
"S. c #3D8523",
"D. c #3D9422",
"F. c #449A19",
"G. c #408B1D",
"H. c #43AD02",
"J. c #41A90D",
"K. c #43B504",
"L. c #47B80A",
"P. c #44A314",
"I. c #4AAD1C",
"U. c #46A71A",
"Y. c #4CB41B",
"T. c #4CBB1B",
"R. c #47B618",
"E. c #52BD1B",
"W. c #51BA19",
"Q. c #51BF0A",
"!. c #438828",
"~. c #4C9C2A",
"^. c #469628",
"/. c #4A8932",
"(. c #4C9833",
"). c #539937",
"_. c #518E38",
"`. c #44A125",
"'. c #4AAD23",
"]. c #49A528",
"[. c #53AA2D",
"{. c #4BB222",
"}. c #4CB926",
"|. c #54B42C",
" X c #54BD2C",
".X c #55BB26",
"XX c #4DA433",
"oX c #54A933",
"OX c #54BC31",
"+X c #59B736",
"@X c #44C403",
"#X c #48C909",
"$X c #4CD70B",
"%X c #52D104",
"&X c #4DC11C",
"*X c #48C714",
"=X c #54C11D",
"-X c #52C819",
";X c #4ED411",
":X c #54D716",
">X c #57E909",
",X c #59EA16",
"<X c #53F11C",
"1X c #4FE709",
"2X c #54C321",
"3X c #54C42B",
"4X c #5CC32D",
"5X c #5BCA2D",
"6X c #55CC29",
"7X c #59D729",
"8X c #5BC332",
"9X c #5ACC33",
"0X c #5CCA39",
"qX c #62CC33",
"wX c #66D438",
"eX c #61CF2E",
"rX c #5EE929",
"tX c #5EFA28",
"yX c #61E725",
"uX c #6AF336",
"iX c #629645",
"pX c #6ACB49",
"aX c #6BD949",
"sX c #75EF53",
"dX c None",
/* pixels */
"dXdXdXdXdXdXdXdXdXdXdXdXdXdXdXdXdXdXdXdXdXdXdXdXdXdXdXdXdXdXdXdXdXdXdXdXdXdXdXdXdXdXdXdXdXdXdXdXdXdXdXdXdXdXdXdXdXdXdXdX",
"dXdXdXdXdXdXdXdXdXdXdXdXdXdXdXdXdXdXdXdXdXdXdXdXdXdXdXdXdXdXdXdXdXdXdXdXdXdXdXdXdXdXdXdXdXdXdXdXdXdXdXdXdXdXdXdXdXdXdXdX",
"dXdXdXdXdXdXdXdXdXdXdXdXdXdXdXdXdXdXdXdXdXdXdXdXdXdXdXdXdXdXdXdXdXdXdXdXdXdXdXdXdXdXdXdXdXdXdXdXdXdXdXdXdXdXdXdXdXdXdXdX",
"dXdXdXdXdXdXdXdXdXdXdXdXdXdXdXdXdXdXdXdXdXdXdXdXdXdXdXdXdXdXdXdXdX5 C <.5XiX<.5 dXdXdXdXdXdXdXdXdXdXdXdXdXdXdXdXdXdXdXdX",
"dXdXdXdXdXdXdXdXdXdXdXdXdXdXdXdXdXdXdXdXdXdXdXdXdXdXdXdXdXdXdXdXdXdXdXdXdX-.<.;X^ dXdXdXdXdXdXdXdXdXdXdXdXdXdXdXdXdXdXdX",
"dXdXdXdXdXdXdXdXdXdXdXdXdXdXdXdXdXdXdXdXdXdXdXdXdXdXdXdXdXdXdXdXdXdXdXdXdXZ c dX9 F 1 dXdXdXdXdXdXdXdXdXdXdXdXdXdXdXdXdX",
"dXdXdXdXdXdXdXdXdXdXdXdXdXdXdXdXdXdXdXdXdXdXdXdXdXdXdXdXdXdXdXdXdXdXdXdXdX,.  dXdXdXdXb dXdXdXdXdXdXdXdXdXdXdXdXdXdXdXdX",
"dXdXdXdXdXdXdXdXdXdXdXdXdXdXdXdXdXdXdXdXdXdXdXdXdXdXdXdXdXdXdXdXdXdXdXdX@ F dXdXdXdXdXdX, dXdXdXdXdXdXdXdXdXdXdXdXdXdXdX",
"dXdXdXdXdXdXdXdXdXdXdXdXdX, dXdXdXdXdXdXdXdXdXdXdXdXdXdXdXdXdXdXdXdX7 @ b 1 dXdXdXdXdXdXdXdXdXdXdXdXdXdXdXdXdXdXdXdXdXdX",
"dXdXdXdXdXdXdXdXdXdXdXdXC dXdXdXdXdXdXdXdXdXdXdXdXdXdXdXdXdXG L B @ b   G   7 dXdXdXdXdXdXdXdXdXdXdXdXdXdXdXdXdXdXdXdXdX",
"dXdXdXdXdXdXdXdXdXdXc M dXdXdXdXdXdXdXdXdXdXdXdXdX( >X$XH.j.8.9.v 6 M O F   c dXdXdXdXdXdXdXdXdXdXdXdXdXdXdXdXdXdXdXdXdX",
"dXdXdXdXdXdXdXdXdXG b dXdXdXdXdXdXdXdXdXdXI r z.%X*X^.7XyXtXG w.^ v 6 M 7 5 c . 1 dXdXdXdXdXdXdXdXdXdXdXdXdXdXdXdXdXdXdX",
"dXdXdXdXdXdXdX3 1.`.dXdXdXdXdXdXdXdXdXdXC.<X;X4.>.oXF.n.I.aX1.[ +XC % L % M 7 < v v dXdXdXdXdXdXdXdXdXdXdXdXdXdXdXdXdXdX",
"dXdXdXdXdXdXdXq.iX# dXdXdXdXdXdX< C O N.*XS.A.pXsXOXyX=X'.).y.| :.7.* 7.q v Y F B m dXdXdXdXdXdXdXdXdXdXdXdXdXdXdXdXdXdX",
"dXdXdXdXdXdXdX3.e.L dXdXdXdXdX7 ,.q.M ,XsX#X;XrXS.` <X,XtXQ b 3.i . F M C 6 ].V A [ 9 dXdXdXdXdXdXdXdXdXdXdXdXdXdXdXdXdX",
"dXdXdXdXdXdX#.) & D w..   b < 7 B r.7.pXsX7XD.tXV.S.m.I t P E.2XF.R i.& , 0 _.J R.;X*XN.$ dXdXdXdXdXdXdXdXdXdXdXdXdXdXdX",
"dXdXdXdXdXdX<.dXdXdX< r.7 . B f 6 #.;.p.4.m.,XR.P s...I..XI.=X3XE { i.P E b.8.0.{.R.#XC.K.dXdXdXdXdXdXdXdXdXdXdXdXdXdXdX",
"dXdXdXdXdXc dXdXdXdXdX  <.,.. b D ;.pXt.C [ e ) I.].3.~.,.v W.!.!.=.J [ >.9X&.Q v.:X^ k.B.8 dXdXdXdXdXdXdXdXdXdXdXdXdXdX",
"dXdXdXdXdXG dXdXdXdXO 7   B r.E g 8.d '.(.0XOX>.`.*.&.*.Y.v.E.'.c.r.u *.3X9X}.s.$Xg.;Xs.7.K.dXdXdXdXdXdXdXdXdXdXdXdXdXdX",
"dXdXdXdXdX< dXdXdXdXdX< B i s i.,.q ; !.0X9XU.8.>.*.$.| W.Q g f V u.* '.qX3X|.x.k.$Xv. .E.#.( dXdXdXdXdXdXdXdXdXdXdXdXdX",
"dXdXdXdX< dXdXdXdXdXdX@ = b C P r.a.W S.^.T.qX~.5X&X{ i 8 f 6 1 5.].n o.qXG m 8X` k.e '.Z.R.#XH.dXdXdXdXdXdXdXdXdXdXdXdX",
"dXdXdXdX. dXdXdXdXdX< v f [ 7 9.y Z p.@.F.!.|.Q f $ P _ U C % $ 8.> k A ^.5X:.4.OX) f.@X;X! %.#XdXdXdXdXdXdXdXdXdXdXdXdX",
"dXdXdXdXdXdXdXdXdXdXb L 9.V pXi : ~.d y.,.T c c , F % dXdX, dX  c   8 f p 5X<.1.).{._ >XF.C.B.K.dXdXdXdXdXdXdX. dXdXdXdX",
"dXdXdXdXdXdXdXdXdXdX7 f B $.y.).+X*.{._ L _.#.# 0 , X dXdX  dX  X dX. B $ ) oX=.-.}.b.*X1XM.*X:Xy 5 dXdXdXdXdXdX3 dXdXdX",
"dXdXdXdXdXdXdXdXdXdXdXK.yX1.w.B wXqX!.[.i :.q.5 dXdX  dXdXdXdXdXdXdXo dX# ) Q ^.^.v 4X( r | &.*.C B 3 dXdXdXdXdXm dXdXdX",
"dXdXdXdXdXdXdXdXdXdXdX:XuX8X!.{ qXeX=X X1 , & n ; dXdXdXdXdXdXdXdXdXdXdXdX' R 4X|.A qX.X=.q.J ,.D A A dXdXdXdXdXb dXdXdX",
"dXdXdXdXdXdXdXdXdXdX@X:X@X,X,Xm.^.1.V  Xf # # dX  dXdXdXdXdXdXdXdXdXdXdXdXf M v 4X X6XeX~.o.I.+.d ; ; dXdXdXdXdXf dXdXdX",
"dXdXdXdXdXdXdXdXdXdX%X} @.:X,X` .Xg W 4X1 0.; dXdXdXdXdXdXdXdXdXdXdXdXdXO O # B W qX].|.+Xh d g 5 c l < dXdXdXdXy z dXdX",
"dXdXdXdXdXdXdXdXdXdX] Q.P.-X1XI OX).oX3Xr 0 ; X dXdXdXdXdXdXdXdXdXdXdXdXdXdX# a 7 ].S.D.D.6 x n S n x 2   dXdXdXd *.dXdX",
"dXdXdXdXdXdXdXdXdXdXj.$.eXX.t 9 OX4.$.^.w R dXdXdXdXdXdXdXdXdXdXdXdXdXdX. 7 <.u.^.8.,.G B N N m m A A m A A A A =.6.> dX",
"dXdXdXdXdXdXdXdXdXdXf.8.T.M.l.Y I.;.$.G.w R dXdXdXdXdXdXdXdXdXdXdXdXdXdX. = 7 Z  .c a p p 4 4 4 z j k k j j 4 k =.6.; dX",
"dXdXdXdXdXdXdXdXdXdXj.#XC.2X$X/ .X^.Y.=XP P 3   dXdXdXdXdXdXdXdXdXdXdXdXdXdX# 2 k _ W :.O.1 K 6.K K S j X dXdXdXq =.dXdX",
"dXdXdXdXdXdXdXdXdXdX%X^ h Q.%X] U.b E E.C M o dXdXdXdXdXdXdXdXdXdXdXdXdX, v i c s &X.X.XL.s * - > 2 2 o dXdXdXdXq k dXdX",
"dXdXdXdXdXdXdXdXdXdXK.@XJ.#XL.d.M.o.V 4XB # # dXX dXdXdXdXdXdXdXdXdXdXdXdXO p j 9X~.3X.X/.4.m.:.b 2 2 dXdXdXdXdX5 dXdXdX",
"dXdXdXdXdXdXdXdXdXdXdX@X#XF.Q a W.E.eX.X5 v g B , dXdXdXdXdXdXdXdXdXdXdXdXv.U qX[.H U.I.t.q.D G A 6.S dXdXdXdXdXm dXdXdX",
"dXdXdXdXdXdXdXdXdXdXdXd.J.Z q.L }.E.3.^.i +Xq.= dXdX  dXdXdXdXdXdXdX1   ' >.3.4.~.@..Xj.h.x.X.{ A A 2 dXdXdXdXdXc dXdXdX",
"dXdXdXdXdXdXdXdXdXdXb F a.h &.].`.@.U.{ w./.N & $ v X dXdX. dXO 5 dX  i.[ [./.$.;.U.l.*XR.T.-X&Xt O dXdXdXdXdXdX; dXdXdX",
"dXdXdXdXdXdXdXdXdXdXv b B Z I.g , v.$.w.c % & m , C # dXdXb dX  i.8  .; z wX>.&.XX'.B.T...g.A.B.dXdXdXdXdXdXdX  dXdXdXdX",
"dXdXdXdX  dXdXdXdXdX= f 1 T b c + G ,.# r >. XO.a r 8 M.s.i.8 ) q.f m n ^.|.@./.Y.b.P x.&X%.V '.dXdXdXdXdXdXdXdXdXdXdXdX",
"dXdXdXdX, dXdXdXdXdXdX  f b = = C c % E v.5XwXX.qXqXS.W ) o 1 f 2.F.j ! -Xc n Y.k.*X' Z.] m.A.] dXdXdXdXdXdXdXdXdXdXdXdX",
"dXdXdXdXdX, dXdXdXdXdXf f . 1 B & 6 1 O.9XW.].M *.=.=.4.2XS.q O , w.q ~.wX3X.Xl.K.A.x.B.Z.@.P dXdXdXdXdXdXdXdXdXdXdXdXdX",
"dXdXdXdXdXb dXdXdXdX. =   f v + 5 c * ~.| 3XY...OX>.-.;.v.:.9XR.^.0.a !.Y.7XY.d.*XX.Z.m.V ] dXdXdXdXdXdXdXdXdXdXdXdXdXdX",
"dXdXdXdXdX@ & dXdXdXdX= b <   f 4 0 F.0.0.' f.k.Y.P.!.+X5 N 5XF.~.V D v.>.Y.i.:.P A.@.[ Z.# dXdXdXdXdXdXdXdXdXdXdXdXdXdX",
"dXdXdXdXdXdX<.dXdXdX7 b O O c @ 6 <.h B ~ d.#XT.z...n.{.3X3X5X=XZ X.D ) i R.w.L l.g.Z.Z. .dXdXdXdXdXdXdXdXdXdXdXdXdXdXdX",
"dXdXdXdXdXdXg h.< B 7   dX,   O < f M H.J.C...j./ ` T.B.j._ 3XT. .R v q C U b.N M.A.x.Y dXdXdXdXdXdXdXdXdXdXdXdXdXdXdXdX",
"dXdXdXdXdXdXdX<.B 4 dXdXdXdXdX@ c v n V.L.f._ V.U ` z.R.L.r i.>.h v u j u k c.y.K d dXdXdXdXdXdXdXdXdXdXdXdXdXdXdXdXdXdX",
"dXdXdXdXdXdXdXf ..O dXdXdXdXdXdX. j   t N.R k.c.J.f.z.L.k.` L { ` m w M P n U j m A X dXdXdXdXdXdXdXdXdXdXdXdXdXdXdXdXdX",
"dXdXdXdXdXdXdX. , f.dXdXdXdXdXdXdXdXdXdX( H.N.^ *...+.} Y K.E Q n.l r m q S 4 2 n n dXdXdXdXdXdXdXdXdXdXdXdXdXdXdXdXdXdX",
"dXdXdXdXdXdXdXdXdXO f dXdXdXdXdXdXdXdXdXdXdX# 8 ( j.' H.K.C.F G s 1 k 5 j 3 k X 2 dXdXdXdXdXdXdXdXdXdXdXdXdXdXdXdXdXdXdX",
"dXdXdXdXdXdXdXdXdXdX. 7 dXdXdXdXdXdXdXdXdXdXdXdXdX8 ] d.9 9 v c , O m   A   S dXdXdXdXdXdXdXdXdXdXdXdXdXdXdXdXdXdXdXdXdX",
"dXdXdXdXdXdXdXdXdXdXdXdX< dXdXdXdXdXdXdXdXdXdXdXdXdXdXdXdXdXc m j   j   A X : dXdXdXdXdXdXdXdXdXdXdXdXdXdXdXdXdXdXdXdXdX",
"dXdXdXdXdXdXdXdXdXdXdXdXdX  dXdXdXdXdXdXdXdXdXdXdXdXdXdXdXdXdXdXdXdXo o 1 j dXdXdXdXdXdXdX  dXdXdXdXdXdXdXdXdXdXdXdXdXdX",
"dXdXdXdXdXdXdXdXdXdXdXdXdXdXdXdXdXdXdXdXdXdXdXdXdXdXdXdXdXdXdXdXdXdXdXdXo A dXdXdXdXdXdX3 dXdXdXdXdXdXdXdXdXdXdXdXdXdXdX",
"dXdXdXdXdXdXdXdXdXdXdXdXdXdXdXdXdXdXdXdXdXdXdXdXdXdXdXdXdXdXdXdXdXdXdXdXdXm . dXdXdX1 < dXdXdXdXdXdXdXdXdXdXdXdXdXdXdXdX",
"dXdXdXdXdXdXdXdXdXdXdXdXdXdXdXdXdXdXdXdXdXdXdXdXdXdXdXdXdXdXdXdXdXdXdXdXdXc m dXP M X dXdXdXdXdXdXdXdXdXdXdXdXdXdXdXdXdX",
"dXdXdXdXdXdXdXdXdXdXdXdXdXdXdXdXdXdXdXdXdXdXdXdXdXdXdXdXdXdXdXdXdXdXdXdXdX{ A D.5 dXdXdXdXdXdXdXdXdXdXdXdXdXdXdXdXdXdXdX",
"dXdXdXdXdXdXdXdXdXdXdXdXdXdXdXdXdXdXdXdXdXdXdXdXdXdXdXdXdXdXdXdX5 v B C } V m 3 dXdXdXdXdXdXdXdXdXdXdXdXdXdXdXdXdXdXdXdX",
"dXdXdXdXdXdXdXdXdXdXdXdXdXdXdXdXdXdXdXdXdXdXdXdXdXdXdXdXdXdXdXdXdXdXdXdXdXdXdXdXdXdXdXdXdXdXdXdXdXdXdXdXdXdXdXdXdXdXdXdX",
"dXdXdXdXdXdXdXdXdXdXdXdXdXdXdXdXdXdXdXdXdXdXdXdXdXdXdXdXdXdXdXdXdXdXdXdXdXdXdXdXdXdXdXdXdXdXdXdXdXdXdXdXdXdXdXdXdXdXdXdX",
"dXdXdXdXdXdXdXdXdXdXdXdXdXdXdXdXdXdXdXdXdXdXdXdXdXdXdXdXdXdXdXdXdXdXdXdXdXdXdXdXdXdXdXdXdXdXdXdXdXdXdXdXdXdXdXdXdXdXdXdX"
};
