/* XPM */
static char *_8cf709f2be7469eb2682fe409b6c9a6TOpSi5lqAx5XnfLB[] = {
/* columns rows colors chars-per-pixel */
"75 75 143 2 ",
"   c black",
".  c #010100",
"X  c #020200",
"o  c #030301",
"O  c #020400",
"+  c #030400",
"@  c #030502",
"#  c #040500",
"$  c #050601",
"%  c #040402",
"&  c #050402",
"*  c #050503",
"=  c #060503",
"-  c #040603",
";  c #060702",
":  c #030406",
">  c #040404",
",  c gray2",
"<  c #050704",
"1  c #040605",
"2  c #060604",
"3  c #070604",
"4  c #070705",
"5  c #060606",
"6  c #070707",
"7  c #080703",
"8  c #080705",
"9  c #070803",
"0  c #070904",
"q  c #060805",
"w  c #070906",
"e  c #060807",
"r  c #080903",
"t  c #080904",
"y  c #090A05",
"u  c #080806",
"i  c #090806",
"p  c #090907",
"a  c #0A0907",
"s  c #080A07",
"d  c #0A0B06",
"f  c #0B0C07",
"g  c #070709",
"h  c #050908",
"j  c #070908",
"k  c gray3",
"l  c #090909",
"z  c #0A0809",
"x  c #0A0A08",
"c  c #0B0A08",
"v  c #0B0B09",
"b  c #08080A",
"n  c #090B0A",
"m  c gray4",
"M  c #0B0B0B",
"N  c #0C0B09",
"B  c #0A0C09",
"V  c #0B0D0A",
"C  c #0A0C0B",
"Z  c #0C0D08",
"A  c #0D0E09",
"S  c #0C0C0A",
"D  c #0D0C0A",
"F  c #0D0D0B",
"G  c #0E0D0B",
"H  c #0C0E0B",
"J  c #0A0E0F",
"K  c #0C0C0C",
"L  c gray5",
"P  c #0E0E0C",
"I  c #0F0E0C",
"U  c #0F0F0D",
"Y  c #0D0F0E",
"T  c #0E0E0E",
"R  c gray6",
"E  c #0E100D",
"W  c #10100E",
"Q  c #11110F",
"!  c #0E0F11",
"~  c #101010",
"^  c #121210",
"/  c #131311",
"(  c #111312",
")  c gray7",
"_  c #131313",
"`  c #141412",
"'  c #151412",
"]  c #151513",
"[  c #151714",
"{  c #161614",
"}  c #171614",
"|  c #171715",
" . c gray9",
".. c #181715",
"X. c #161815",
"o. c #171916",
"O. c #161817",
"+. c #181816",
"@. c #191917",
"#. c #1A1917",
"$. c #181818",
"%. c #191919",
"&. c #1A1A18",
"*. c #1B1A18",
"=. c #1B1B19",
"-. c gray10",
";. c #1C1C1A",
":. c #1D1D1B",
">. c #1E1E1C",
",. c #1F1F1D",
"<. c #1F211E",
"1. c #20201E",
"2. c #21211F",
"3. c #1D2122",
"4. c #1F2022",
"5. c #202221",
"6. c #222220",
"7. c #232321",
"8. c #232323",
"9. c #242422",
"0. c #252422",
"q. c #252523",
"w. c #262523",
"e. c #232524",
"r. c #262624",
"t. c #272725",
"y. c #282826",
"u. c #292927",
"i. c #2A2A28",
"p. c #2B2B29",
"a. c #2D2D2B",
"s. c #2E2E2C",
"d. c #2F2F2D",
"f. c #30302E",
"g. c #31312F",
"h. c #333532",
"j. c #343432",
"k. c #353533",
"l. c #383836",
"z. c #3A3A38",
"x. c #3B3B39",
"c. c #3E3E3C",
"v. c #454543",
/* pixels */
"2 2 S 2 u S   v 2 u * u * u * v 2 * 2 u 2 u v 2 ` 2 v v * 2 2 u u u 2 2 u 2 u 2 * u v * u S * u * Q S v.^ u v u 2 2 2 2 2 2 2 2 2 v v 2 2 u u u u 9 u ",
"v S * 2 u * v S T 2 2 S u u u 2 v u u u v u 2 S l.{ 2 2 v S 2 u 2 u u u u u u u S * u v   * u u S ,.v { T * u u 2 2 2 2 2 2 2 2 T 2 * v S u u v u * * ",
"v   2 v v v u ` 9.T u u + * S u 2 2 u * u u * S S T T 2 * S v 2 2 2 2 2 2 2 u u * v * * S v 2 u 2 v * * S * u 2 2 2 2 2 2 2 2 2 u S Q u   2 S 2 u u v ",
"v 2 v u   u 2 2 Q   * u S u v * 2 2 v * * S 2 u * * u u u 2 2 S ` S u 2 2 2 2 v S 9.` * u     u u 2 2 v u u u v u u u u u u u u * S Q u u ;.1.S   2 v ",
"  ;.v u u ^ a.Q 2 2 v T &.Q u u S * v v 2 v u 2 T v 2 u S 2 2 v ,.T u u v u * v * Q S u u u T 2 * S v 2 2 T * u u u u u u u u u v v T S 2 u v   T v u ",
"u &.v u 2 * {   u S 2   S 2   u u   * v u 2 u u   u v v u 2 u * Q 2 2 2 u v * v u u   2 S 2 2 u T   u u u v u 2 u u u u u u u u   2 ^ ` u   v ` 6.T * ",
"u 2 u v v u * v * v 2 2 v v 2 S * T 2 2 v * u v Q 2   v v 2 S u * * T 2 2 v 2 u 2 v u * u + v u.9.* v v 2   S v u u u u u u u u u u v u 2 2 2 2 { u * ",
"2 S 2 * u 2 u v u v 2 v 2 v u 9 v i.` * v 2 u u * v u u * S { v u Q ;.S * S 2 u v   u S u u 2 v u v u 2 v u * u u u u u u u u u u u 2 2 u u u v 2 u v ",
"* v N i.u 2 u u u u 2 2 2 2 u u u +.S N * * u 8 * v 2 S 2 T 6.T u ` { S 2 u u * 2 ^ &.v 2 * u * v 2 2 u 2 u u 2 v 2 v 2 * u u u u v v u u v u 2 u * u ",
"N S 2 { v u u 2 u u u u u u u 2 v S 2 u v T ..v u v * v * 2 ^ 2 * u v u 2 u u u v ^ { S v u S u u u v v 2 2 u 2 S u.u u T u * u 2 u u 2 2 2 u u * 2 2 ",
"2 u * * v 2 2 v 2 u u 2 u v u 2 8 * 8 u u N &.N u 2 2 v u * u 2 u 2 2 u u 2 u u g v S 2 2 9 u * u u u v 2 2 u u 2 +.2 * * u T * u u u u 2 2 2 u 2 S 2 ",
"v v S 2 S u * u u u u * 2 v v u u u v v 2 * T 2 2 2 2 u v u 2 v S u 2 u u 2 2 u v u 2 2 2 2 u * u 2 2 2 2 u u 2 2 S 2 T S 2 f.S 2 2 2 u u u 2 u S +.u ",
"u * 2 u u v 2 2 u u u 2 2 u u 2 u S 2 v u u 2 2 u u u 2 u v * u u u u u 2 u u u v v u u 2 u 2 u 2 2 v v u u q * 2   v   u v ^ v v 2 * 2 u u 2 2 T +.v ",
"2 N u v * u u v u u v v u 2 2 2 * v * u 2 u * S u v v * 2 u * 9 u v v 2 2 u u u 2 u 2 u * 2 * 2 * v ` ` S 2 2 q u T * v v 2 u u +.` T u 2 u u 2 2 T u ",
"T 9.&.T 2 * 2 v u u v v u 2 u S S u 2 u 2 2 2 S 2 u u 2 9 u u 9 v v v u u u u 2 u v u v 2 v u u 2 S ^ ^ S u u u u * u S   S * v +.+.^ v 2 u u 2 * 2 2 ",
"2 9.`   v u u 2 u 2 2 u 2 2 S ` ,.u u 2 u u v   2 2 2 u u * u * u 2 2 u u u 2 2 2 u 2 v * v 2 2 u 2 2 u 2 2 u 2 u u u u 2 2 v v 2 S S 2 * u v u v 2 u ",
"2 u 2 2 u 2 2 u u u 2 * v u 2 ^ ` S u u u u u 2 2 v v 2 2 v S v u u u u u u u u v * u v u 2 2 u u v u 2 2 u u 2 u u u u u u u u u v v 2 v u 2 v u u u ",
"u v u 2 u u u v u u v u * 2 v u 2 * u v 2 2 u u 2 * 2 u v v u u u u u u u u u u   1.* * v 2 v v 2 * * u u * 2 S u u u u u u u u 2   2 v u 2 * 2 u u u ",
"2 2 2 u u u 2 2 * 2 * u v u S u v u S S u 2 2 2 ^ v 2 u u u 2 u u u u u u u u u T k.T u v 2 2 * 2 v v u u v 2   u u u u u u u u v u S S 2 u T 2 u u u ",
"v u u v u u u u 2 &.u   S *   2 S *   * 2 u v u +.Q u u u u u u u u u u u u u u   T 2 u * S v S r.T * Q ` u 2 T u u u u u u u u 2 u u v 2 u v 2 v v v ",
"S u u u * 2 u v S u.+.2 v u v v 1.{ S v u u u * S v u u u u u 2 u u u u u u u u v   v u   u * * { * 2 +.,.T   2 u u u u u u u u * v * u T * * u v v v ",
"u 2 v T u 2 2 2 ^ ^ 2 2 2 * u * S 2 * 2 * 2 u u 2 u 2 2 2 u u 2 u u u u u u u u u u u 2 v v v u 2 u 2 * 2 v u 2 u u u u u u u u S ;.S   v u u v v v v ",
"u u ^ +.T v v 2 ,.S 2 S T u u 2 u 2 u v 2 2 u u v u 2 u u u u u u u u u u u u u 2 S * 2 u u * 2 u 2 u S v 2 2 v u u u u u u u u S &.S * 2 2 v 2 u u u ",
"v 2 S Q 2 * u u * v u   2 v 2 v u * 2 u u u u 2 u 2 u Q Q v 2 u u u u u u u u u u 2 2 Q 2 v   v 2 u u u u v v 2 u u u u u u u u 2 2 2 &.&.2 2 u u u u ",
"* v u u u 2 v 2 u v * Q 6.2 u u v u 2 v *   T 2 2 u u T &.S v u u u u 2 u v 2 u u u v d.Q v * u 2 u u u u 2 2 u 2 2 v v 2 2 u u u * 2 { ` u v 2 2 u v ",
"u v 2 2 2 * u u 2 2 u Q 1.v v u 2 u 2 6.T S 2 u 2 u * u T 2 2 u u ;.{ 2 S * 2 u 2 u 2 ` * 2 v 2 u u 2 2 u u u u v 2 u u 2 2 2 * 2 u   u   Q f.S S u 2 ",
"2 v u v v 2 u * T 2 2 2 T * 2 2 u u * 6.S S   v u v * 2 u 2 2 u 2 ^ ^ u S 2 1.{ 2 u u 2 * 2 S * u 2 2 2 u u u 2 u 2 u u 2 2 u 2 v   v S v 2 Q u 2 * 2 ",
"S Q v 2 * u T v +.v S * 2 * u v v u u S 2 2 u u 2 v 2 v 2 u 2 u u * u 2 2 * &.Q 2 2 u u S 2 u u u 2 u u u 2 2 2 * 2 v S u 2 u v 2 2 v   2 u   S S u u ",
"u v 2 u 2 * 2 2 Q * T u 2 v u u u 2 v   2 u v * 2 2 2 v 2 v 2 2 u u 2 * v u   2 v u 2 u u 2 * S u u u u u 2 u v v 2 u v 2 2 u u * S   v v S T   1.^ 2 ",
"v u T ;.;.S 2 u u   v u 2 u 2 * u 2 u 2 u u 2 2 S 2 2 2 * u 2 u 2 u v 2 2 S 2 v u v u u * u * v u u u u 2 2 S ^ { S 2 2 u u u 2 ;.{ u u 2   * v { T 2 ",
"u 2 2 T T * * u v u v u 2 u u u u u u u 2 u   S +.u u 2 2 u u u u * u u u * v 2 2 2 v u 2 S * 2 v u 2 u u 2 v Q ` v 2 u u u u 2 v ` ;.2 u u Q u   2 u ",
"2 v u u 2 2 v u 2 2 2 u 2 2 2 u 2 u Q v u v 2 v ,.v v 2 v u u 2 2 v 2 T 6.u 2 u v   u 2 2 u 2 u u 2 2 v u 2 2 v u * 2 u 2 2 u u u S &.v 2 S c.T u u u ",
"2 u 2 * 2 v u 2 u 2 u 2 2 v * v u   6.6.2 2 v 2 u 2 2 u 2 2 u u u u u u u u u u u u 2 * Q u 2 v u u S * v v v 2 2 * 2 u 9 u u 2 u u   v u * T 2 u 2 u ",
"v u v S u * u v 2 2 S 2 u v 2 * T 2 u * 2 v 2 2 u u u 2 2 v v * u u u u u u u u u u u S &.T 2 2 v * * u 2   * T T v v 9 * 2 u 2 u * u 2 2 v 2 u v 2 2 ",
"u * 2 u * 2 u 2 v * v * u u v 2 * v v u v u * v 2 u u 2 v { { S u u u u u u u u T v 2 * S 2 * v 2 T u u 2 u S 2 2 2 v u 9 u u 2 2 2 v 2 2 u * v 2 2 u ",
"v u u 2 u ` ` 2 v * 2 u u 2 u v u u u u 2 2 v u 2 u u 2 u Q Q 2 u u u u u u u u * u S u v 2 u S 2 ^   u v 2 * u v * 2 u u u u 2 u S 2 2 v 2 2 2 * 2 v ",
"u u u 2 v +.{ u 2 u 2 S 2 2 2 2 u u 2 u u 2 v 2 u 2 2 2 2 u u * u u u u u u u u v Q ` u u * 2 * Q f.&.u 2 u u T &.v * u u 2 2 v v T v u v 2 u S S u u ",
"* u u * 2 v v u 2 T v 2 2 u u 2 2 v u u S v * u u 2 u v u u v v u u u u u u u u 6.1.+.u 2 v T u   T   2 T * 2 ;.&.S 2 u u 2 2 v u T ,.Q * 2 2 &.&.v 2 ",
"u ` ` u 2 2 2 v u S v 2 { u v u T 2 v 2 2 v 2 2 v u u u 2 2 2 * u u u u u u u u T u u   2 2 v * u v u 2 v u u 2 T 2 2 u u u u 2 2 v ,.^ * 2 * +.^ v 2 ",
"u ,.&.u 2 v 2 2 2 * S Q d.u u u 2 2 u.r.2 * v u 2 2 u u u v S v u u u u u u u u u * v v v 2 u 2 v   S u * * S 2 2 2 u 9 * u v v v * 2 u u v u   2 2 v ",
"2 u u u 2 2 u v v 2 u 2 v 2 u u u u v v u u u u u 2 2 u u v v 2 2 u u u 2 2 2 2 u v v 2 2 v v 2 u v   u v * u 2 2 v 2 2 2 2 v 2 * v u 2 v 2 * S q B B ",
"S u 2 u v u 2 u 2 u S 2 v u v * 2 u u u u u u u v u v u 2 2 u u v u u 2 u u u u * 2 u v u 2 * * 2 * v ,.x.Q 2 u u u 2 S S 2 u u u u u 2 2 v v * * ^ 6.",
"v 2 2 u u u u u u u v 2 u 2 v u 2 2 u u u u u u 2 2 2 2 u u 2 2 ^ T v u u v u 2 S 2 * v v 2 v { T 2 2 S i.u u u 2 v 2 2 2 2 v 2 u * u v v +.;.v u { e.",
"2 u v 2 2 u v u v 2 2 u v 2 u v 2 2 u u u u u u u u u u v u u v ^ T u u u u u 2 <.^ u u 2 * v +.S v u 2 u * S * 2 v 2 2 2 2 v 2 v * u u 2 ^ { 2 * 2 q ",
"u v u u u u u 2 u 2 2 v v v u 2 2 2 u u u u u u u v u 2 2 * * S u 2 2 2 2 u u u o.T u u u 2 2 S u 2 2 Q 2 2 u u u * u +.+.u * u u u u 2 * 2 u   v u u ",
"v *   u v u 2 u 2 v 2 * * v u 2 u u u u u u u u 2 2 * u Q T 2 2 2 2 u u u u u u q * * u v v u 8 u u * * v 2 * S u 2 u ` ` u 2 u * u u u v u u S u u u ",
"2 u v u u u u u u u 2 v 2 u 2 u u u 2 u u u u 2 u u * S &.+.S u u u u u u u u u B u u u u u u 2 2 v v * v v 2 2 2 v 2 u u 2 v 2 2 u 2 2 2 2 2 2 2 2 2 ",
"u +.;.S   u S 2 2 2 S ,.{ u   S u u 2 2 u u u 2 2 v 2 2 v 2   v u 2 2 2 u u u u q 2 2 2 u u u u u   v S * u v 2 u u 2 u u 2 u u u 2 2 u 2 v v 2 u 2 2 ",
"2 ` ^ 2 2 u 2 v v * u ,.^ u u * u u u u u u u u J 3.v 2 T * N 2 u u 2 u v v u 2 u u v u u * 2 +.S v u k.{ u * 2 u u u u 2 2 v 2 u v 2 2 2 2 v u u u u ",
"2 2 2 S v * Q u.v v * S 2 * u u u u u u u u u u h o.h 2 v 2 v 2 2 2 v T v * * S v * 2 2 u u u ` T   v Q S u S u u u 2 u 2 2 u * u 2 v &.&.v 2 u u u u ",
"u u u 2 * 2 v ^ 2 T 2 * 2 u 2 u u u u u u u u u 2 B q 2 u 2 u 2 v * ` d.i.T 2 +.+.S u u 2 2 * 2 u 2 S 2   * 2 2 2 u 2 v u u S u u 2 u { { u 2 u u u u ",
"v 2 u v v u 2 * 2 v u u v v 2 2 u u u u u u u u u q u u u u 9 7 u * 2 u u u v ^ ` u u u 2 v u u 2 v   S S u v u u v 2 u * * u * u u 2 u u 2 u u u u u ",
"2 2 u u * 2 v u u * 2 2 2 2 u u u u u u u u u u f * v v 2 u 2 u 2 v v 2 2 v u * u   2 u 2 u v v 2 v 2 2 v   2 u u u 2 u u v Q T * v 2 2 2 2 v * u u u ",
"2 v u * 2 v u * u * S u 2 2 v u u u u u u u u u v * u u 2 u u v v 2 u v u * * v u 2 v u 2 2 * 2 2 u S u * ^   2 2 u 2 v v T { ` 2 u 2 u u 2 u 2 u u u ",
"S *   T { T 2 S 2 ^ ,.v u v u 2 u u u u u u u u 8 u 2 u v v v v + u f * * u f 9 2 2 v 2 u v 2 v v 2   S T a.Q u v v 2 u 2 2 v 2 v u * u u * u v u u u ",
"* v u 2 S v 2 u u 9.i.2 * v 2 2 u u u u u u u u 8 N u v v 2 v g f u 9 u u u u u 2 u u * u v * u 2 u u u u S T 2 u u u u u 2 v 2 2 u 2 u u 2 u 2 2 2 2 ",
"2 v v 2   T u u S ` S u 2 * v u u u * u ;.&.u u u u u u 2 u v 2 u u u u u u u u S * * S u 9.S 2 u u u u u u u u u 2 v * u u S * u u 2 2 u 2 2 S u 9 2 ",
"u * 2 u 2 2   u * u 2 2 v u u 2 2 2 u u T Q u 2 2 2 2 2 2 u u 2 u u u u u u u u   S u v * ` u u u u u u u u u u v u u S 2 2 2 v 2 u v u v S v   u u 2 ",
"S * u u S v 2 u v u u u v u * u 8 * N u * v v 2 2 u u 2 u u 2 u u u u u u u u u u Q 2 v u 2 * u u u u u u u u u u v u +.v v   v v 2 * 2 u ^ { S u u u ",
"2 u Q * 2 u u * v 2 v u 2 u S ,.v 2 u 2 * v u 2 u v u 2 u u 2 u u u u u u u u u 2 2   u v 2 u u u u u u u u u u 2 v u &.v S   u 9.^ v v * 2 u * u u v ",
"u ` 1.S 2 u S v u * v u 2 u T 6.v u u 2 u u * u u u 2 2 2 u 2 2 u u u u u u u u u 2 T u * u v * u u u u u u u u u u 2 S * u 2 v ^ 2 2 v 2 u S u u u v ",
"2 v T 2 * 2 2 2 v v v v u 2 2 T 8 u v 2 u u * u u u u 2 2 v S 2 u u u u u u u u v   u u 2 u 2 2 u u u u u u u u u u q 2 * u v 2 u 2 u u 2 u v * u u v ",
"v * * 2 u S u u 2 v 2 u v u 2 2 8 8 N 2 u Q T 2 v 2 v u 2 Q ` u u u u u u u u u   S * * u u 2 v u u u u u u u u 9 u u u u f u * u u u u u u v u u u 2 ",
"2 u v v * u * v * S 2 2 u 2 v 2 v * u 2 u ;.&.* u * u u * ^ +.u u u u u u u u u v x.9.v * u v * u u u u u u u u u u 9 u * u u u u 2 u S T u * u u 2 2 ",
"2 u u u u u 2 u u u u u u 2 2 u v 2 v u 2 u u u 2 2 u v u * * u v 2 2 u u 2 2 v u &.r.u v 2 2 u u 2 u u v u * v u 2 2 u u v u * u u u S S v u 2 u 2 2 ",
"u 2 2 2 2 2 u u * u 9 9 u u 2 u * 2 u v v v u 2 2 2 2 2 u v v u 2 2 2 2 2 2 2 2 u * 2   2 u u u v u u 2 u v * 2 u 2 u u 2 2 u u u 2 u v v u 2 2 2 2 2 ",
"u S { { S 2 u u u u u 2 u u 2 u v T 2 * u u v u u v v 2 2 u 2   u v v u 2 u u u * u v T u u v * 2 u u 2 S ^ S v u 2 2 u * 2 u u u 2 2 u u u u u u 2 2 ",
"2 v { +.u   2 2 u v u 2 u u u u ,.9.Q u v 2 v 2   2 u u 2 u u u u u u 2 2 2 2 u u u   2 u 2 T 2 u u u 2 u v * * u * 2 u 2 2 u 2 u u u u u u u u u u u ",
"v * 2 u * 2 v 2 * u 2 2 u u u u * T     v 2 v u T u 2 u u 2 2 v u 2 u S S 2 2 u 2 2 u ^ 1.u 2 2 u 2 u u 2 2 * T T u 2 u u u u 2 u u u u u u u u u u u ",
"v 2 2 2 2 u v u v S v u u u 2 2 u Q u u S u u * ;.Q 2 2 u 2 * 2 v 2 S ` ^ v 2 v u u u 2 { * * u 2 * u u u u T ,.` S 2 2 2 u u u 2 u u u u u u 2 2 2 2 ",
"* 2 u u 2 * * * v ^ T v u u 2 2 2 2 2 2 2 2 u u ^ v 2 2 u u u v 2 * u S S 2 * 2 u 2 u 2 +.+.T * u 2 u 2 2 * 2 Q Q u 2 2 2 2 u u 2 u u u 2 u u u u u 2 ",
"u v 2 2 u u u u 2 v v 2 2 u u v u * v v u u 2 u * 2 v u 2 * 2 u u u u u 2 2 2 u S * v v 2 u 2 u 2 2 v u u u * u u * * u u 2 2 2 u v v 2 2 u u u u u u ",
"q q : 2 u r * v u u u u u u u u * v B q + u 2 2 u u 8 8 8 8 u u 2 u v 2 u 2 u 2 2 2 u u u u u 2 u u u u u u u 2 2 u u 2 2 u u 2 2 2 2 2 u u 2 2 2 u u ",
"q T ! 2 u 9 * 2 u u u u u u u u v 2 * + E + u v u u 8 8 8 8 u u u 2 * * S * 2 2 2 2 u u u u u 2 u u u u u u 2 2 2 u u 2 2 u u 2 2 2 2 2 u u 2 2 2 u u ",
"q o.3.v 9 9 u 2 u u u u u u u u u * B o.h.B u 2 u u 8 8 8 8 u u v 2 v T 6.v 2 u 2 u u u u u 2 2 2 u u u u u 2 2 2 u u 2 2 u u 2 2 2 2 2 u u 2 2 2 u u "
};
