/* XPM */
static char *result[] = {
/* columns rows colors chars-per-pixel */
"60 60 225 2 ",
"   c #040404",
".  c #080707",
"X  c #060609",
"o  c #07080A",
"O  c #0B0B0B",
"+  c #050B04",
"@  c #110F0E",
"#  c #041302",
"$  c #051D01",
"%  c #091B04",
"&  c #0B140A",
"*  c #0B1C0B",
"=  c #11100E",
"-  c #131C0F",
";  c #0D0E11",
":  c #070911",
">  c #0D1212",
",  c #141413",
"<  c #181615",
"1  c #1A1916",
"2  c #13141B",
"3  c #181718",
"4  c #171A1C",
"5  c #1C1C1A",
"6  c #141C13",
"7  c #201E1C",
"8  c #0B2402",
"9  c #0C2C02",
"0  c #0B2407",
"q  c #132B0C",
"w  c #132A07",
"e  c #0E3B04",
"r  c #113405",
"t  c #113B03",
"y  c #163609",
"u  c #1B2414",
"i  c #1A2B13",
"p  c #1D231B",
"a  c #1B281C",
"s  c #1D3413",
"d  c #1C3618",
"f  c #23221E",
"g  c #212C1B",
"h  c #253A1A",
"j  c #1C1D21",
"k  c #191C25",
"l  c #201F23",
"z  c #1A2022",
"x  c #1F202B",
"c  c #252423",
"v  c #282624",
"b  c #2C2A25",
"n  c #25252B",
"m  c #28272B",
"M  c #2C2B2B",
"N  c #252C27",
"B  c #312E2A",
"V  c #2A3727",
"C  c #34322D",
"Z  c #333B2A",
"A  c #2B2B33",
"S  c #272B35",
"D  c #343333",
"F  c #383632",
"G  c #3D3B34",
"H  c #32333A",
"J  c #3D3A38",
"K  c #303038",
"L  c #423E39",
"P  c #184509",
"I  c #1A5505",
"U  c #1B5209",
"Y  c #1E5B08",
"T  c #21460C",
"R  c #235C0A",
"E  c #29481A",
"W  c #2C531B",
"Q  c #2C5C1A",
"!  c #275613",
"~  c #315D1C",
"^  c #30501C",
"/  c #1D6306",
"(  c #256D01",
")  c #2B6B0E",
"_  c #246608",
"`  c #2C740C",
"'  c #2C7B0A",
"]  c #277508",
"[  c #2B6616",
"{  c #32641C",
"}  c #346D1B",
"|  c #37641B",
" . c #2D7817",
".. c #337C15",
"X. c #34701A",
"o. c #39741C",
"O. c #347D1B",
"+. c #367716",
"@. c #2C4526",
"#. c #3B4B2E",
"$. c #364728",
"%. c #2C5121",
"&. c #335225",
"*. c #37582A",
"=. c #394833",
"-. c #3C5833",
";. c #3C622B",
":. c #396725",
">. c #3B7429",
",. c #45423C",
"<. c #46483A",
"1. c #465838",
"2. c #42692C",
"3. c #447B2B",
"4. c #476635",
"5. c #517A36",
"6. c #363A42",
"7. c #4B4641",
"8. c #4E4A43",
"9. c #514C46",
"0. c #534F48",
"q. c #55524A",
"w. c #5A554E",
"e. c #5B5A4D",
"r. c #5D5851",
"t. c #4D5240",
"y. c #625C55",
"u. c #586248",
"i. c #676259",
"p. c #7C766C",
"a. c #706A61",
"s. c #2E870C",
"d. c #338405",
"f. c #318B04",
"g. c #338C0E",
"h. c #34870D",
"j. c #359403",
"k. c #36930D",
"l. c #3B9D0B",
"z. c #389706",
"x. c #2C8619",
"c. c #3C8D15",
"v. c #388718",
"b. c #369211",
"n. c #3B9313",
"m. c #3A9B15",
"M. c #3C9519",
"N. c #3BA301",
"B. c #3CA30D",
"V. c #3AAA07",
"C. c #3DB705",
"Z. c #39A615",
"A. c #3DB516",
"S. c #3D8523",
"D. c #3D9422",
"F. c #449A19",
"G. c #408B1D",
"H. c #43AD02",
"J. c #41A90D",
"K. c #43B504",
"L. c #47B80A",
"P. c #44A314",
"I. c #4AAD1C",
"U. c #46A71A",
"Y. c #4CB41B",
"T. c #4CBB1B",
"R. c #47B618",
"E. c #52BD1B",
"W. c #51BA19",
"Q. c #51BF0A",
"!. c #438828",
"~. c #4C9C2A",
"^. c #469628",
"/. c #4A8932",
"(. c #4C9833",
"). c #539937",
"_. c #518E38",
"`. c #44A125",
"'. c #4AAD23",
"]. c #49A528",
"[. c #53AA2D",
"{. c #4BB222",
"}. c #4CB926",
"|. c #54B42C",
" X c #54BD2C",
".X c #55BB26",
"XX c #4DA433",
"oX c #54A933",
"OX c #54BC31",
"+X c #59B736",
"@X c #44C403",
"#X c #48C909",
"$X c #4CD70B",
"%X c #52D104",
"&X c #4DC11C",
"*X c #48C714",
"=X c #54C11D",
"-X c #52C819",
";X c #4ED411",
":X c #54D716",
">X c #57E909",
",X c #59EA16",
"<X c #53F11C",
"1X c #4FE709",
"2X c #54C321",
"3X c #54C42B",
"4X c #5CC32D",
"5X c #5BCA2D",
"6X c #55CC29",
"7X c #59D729",
"8X c #5BC332",
"9X c #5ACC33",
"0X c #5CCA39",
"qX c #62CC33",
"wX c #66D438",
"eX c #61CF2E",
"rX c #5EE929",
"tX c #5EFA28",
"yX c #61E725",
"uX c #6AF336",
"iX c #629645",
"pX c #6ACB49",
"aX c #6BD949",
"sX c #75EF53",
"dX c None",
/* pixels */
"dXdXdXdXdXdXdXdXdXdXdXdXdXdXdXdXdXdXdXdXdXdXdXdXdXdXdXdXdXdXdXdXdXdXdXdXdXdXdXdXdXdXdXdXdXdXdXdXdXdXdXdXdXdXdXdXdXdXdXdX",
"dXdXdXdXdXdXdXdXdXdXdXdXdXdXdXdXdXdXdXdXdXdXdXdXdXdXdXdXdXdXdXdXdXdXdXdXdXdXdXdXdXdXdXdXdXdXdXdXdXdXdXdXdXdXdXdXdXdXdXdX",
"dXdXdXdXdXdXdXdXdXdXdXdXdXdXdXdXdXdXdXdXdXdXdXdXdXdXdXdXdXdXdXdXdXdXdXdXdXdXdXdXdXdXdXdXdXdXdXdXdXdXdXdXdXdXdXdXdXdXdXdX",
"dXdXdXdXdXdXdXdXdXdXdXdXdXdXdXdXdXdXdXdX, n V } C C v p dXdXdXdXdXdXdXdXdXdXdXdXdXdXdXdXdXdXdXdXdXdXdXdXdXdXdXdXdXdXdXdX",
"dXdXdXdXdXdXdXdXdXdXdXdXdXdXdXdXdXdXdX5 D.M { dXdXdXdXdXdXdXdXdXdXdXdXdXdXdXdXdXdXdXdXdXdXdXdXdXdXdXdXdXdXdXdXdXdXdXdXdX",
"dXdXdXdXdXdXdXdXdXdXdXdXdXdXdXdXdX. M P dXn c dXdXdXdXdXdXdXdXdXdXdXdXdXdXdXdXdXdXdXdXdXdXdXdXdXdXdXdXdXdXdXdXdXdXdXdXdX",
"dXdXdXdXdXdXdXdXdXdXdXdXdXdXdXdX3 < dXdXdXO m dXdXdXdXdXdXdXdXdXdXdXdXdXdXdXdXdXdXdXdXdXdXdXdXdXdXdXdXdXdXdXdXdXdXdXdXdX",
"dXdXdXdXdXdXdXdXdXdXdXdXdXdXdX, dXdXdXdXdXdXA o dXdXdXdXdXdXdXdXdXdXdXdXdXdXdXdXdXdXdXdXdXdXdXdXdXdXdXdXdXdXdXdXdXdXdXdX",
"dXdXdXdXdXdXdXdXdXdXdXdXdXdX  dXdXdXdXdXdXdXk 5 o . dXdXdXdXdXdXdXdXdXdXdXdXdXdXdXdXdXdXdXdX  dXdXdXdXdXdXdXdXdXdXdXdXdX",
"dXdXdXdXdXdXdXdXdXdXdXdXdXdXdXdXdXdXdXdXdX; o m X j   j m c dXdXdXdXdXdXdXdXdXdXdXdXdXdXdXdXdX< dXdXdXdXdXdXdXdXdXdXdXdX",
"dXdXdXdXdXdXdXdXdXdXdXdXdXdXdXdXdXdXdXdXdXS   m   S O , c v 9 9 d.( 8 dXdXdXdXdXdXdXdXdXdXdXdXdX7 . dXdXdXdXdXdXdXdXdXdX",
"dXdXdXdXdXdXdXdXdXdXdXdXdXdXdXdXdXdXdX2 . k 2 j 5 z 1 s G F C.L.K.' j._ 9 # dXdXdXdXdXdXdXdXdXdXdXf O dXdXdXdXdXdXdXdXdX",
"dXdXdXdXdXdXdXdXdXdXdXdXdXdXdXdXdXdXn n 2 4 S q m r f n.Q E K.Y | ` ..*.^ l.H.( dXdXdXdXdXdXdXdXdXdXf.< + dXdXdXdXdXdXdX",
"dXdXdXdXdXdXdXdXdXdXdXdXdXdXdXdXdX. S n j U n P m r m ( ~ ,.` k.L.z.f.R.c.l.! V.t   7 o dXdXdXdXdXdXO ..c dXdXdXdXdXdXdX",
"dXdXdXdXdXdXdXdXdXdXdXdXdXdXdXdXdXdXg H i.c.5 a l u v h >.i.r L.L.k.` I V.Y f.C.V.n v c @ dXdXdXdXdX5 B <.dXdXdXdXdXdXdX",
"dXdXdXdXdXdXdXdXdXdXdXdXdXdXdXdXY x.A.m.N k.T B q M ! ` T.3X_ j.B.T.` _ z.' C.J.H.m c < @   , dX  7 M < h.u dXdXdXdXdXdX",
"dXdXdXdXdXdXdXdXdXdXdXdXdXdXdXx.Z.Z.g.m.L q.R.i ) F X.Z 2X5X3X3X}.b...j.T.*Xd.{ B h <.6 , f O O b p dXdXdX<.dXdXdXdXdXdX",
"dXdXdXdXdXdXdXdXdXdXdXdXdXdX+ Z.} @.A.P :.i.I.>.v.D h (.F.9XN 5 +XS.P.Y.k.f.` 0.9.F.0 5 f   1 b = dXdXdXdX@ @ dXdXdXdXdX",
"dXdXdXdXdXdXdXdXdXdXdXdXdXdX] @.k.Z.X.*Xd.Y.7XY./.a 9.^.R.3X:.v.;.1.>.3Xh.I.3X| ~.* c p + f f   =   dXdXdXdXv dXdXdXdXdX",
"dXdXdXdXdXdXdXdXdXdXdXdXdXP V Z.Z.v.A.K.l..X6XwX].w w., O s S..X;.=.<.*.M `.E.5XO.3 1 & B 1 . f f dXdXdXdXdX< dXdXdXdXdX",
"dXdXdXdXdXdXdXdXdXdXdXdX) }.Z.] l.] *Xk.Y.x z =X! k F.2.f 1 . ) W S.qXqX} wX4XG.E $ v C & , b 7 . dXdXdXdXdXdX= dXdXdXdX",
"dXdXdXdXdXdXdXdXdXdXdXdXA.V W R.x.P n.{./.%.|.D.n v v q.) 9 i.s.M.8 w a O..X>.t * ,.F + f v T 1 f = dXdXdXdXdX. dXdXdXdX",
"dXdXdXdX  dXdXdXdXdXdXdXB.A.g.O.*XB.I.XX&.;.wXp ;  .8 y.  dXv dXdX# B > m O # c w.$.g., g I.Z C b v dXdXdXdXdXdXdXdXdXdX",
"dXdXdX; dXdXdXdXdXdXO t }.-XR.R.*Xm.Z.;.$./.+X} i.  dX5 O dX. dXdXo N 8 & N /.w.{ F.@.].].&.h a.C B dXdXdXdXdXdXdXdXdXdX",
"dXdXdXc dXdXdXdXdX2 A S :.} g.h.j..X@.~.4.3.O.'   1 dXdXdXdXdXdXdX  dXdX> q.+Xg ~.3.E.{.L 0.Z P.d.dXdXdXdXdXdXdXdXdXdXdX",
"dXdXdXm dXdXdXdXdXS H A G K w.9.I.U.H [.qXU v.dXdXdXdXdXdXdXdXdXdXdXdX, B g f 7  XeX=XR.u Q F.;X@XdXdXdXdXdXdXdXdXdXdXdX",
"dXdXdX5 dXdXdXdXdX2 2 N } m.4./..X3X~.9Xk z = dXdXdXdXdXdXdXdXdXdXdXdX. dX# # B 4XV o.M.s.@X#XJ.@XK.dXdXdXdXdXdXdXdXdXdX",
"dXdXj q dXdXdXdXo k 2 > * * s L.2X}.&Xs c i f < dXdXdXdXdXdXdXdXdXdXdXdXdXo M C E.E b I.] %XQ.V ^ @XdXdXdXdXdXdXdXdXdXdX",
"dXdX=.0 dXdXdX. j S K H H H 3 O.:.W _ k 5 # dXdXdXdXdXdXdXdXdXdXdXdXdXdX  3 P P =XY.`. X/ $XE.K.%Xz.dXdXdXdXdXdXdXdXdXdX",
"dX> 6.=.k k 4 k k k 4 z 4 6 4 p p f c  .Z f =   dXdXdXdXdXdXdXdXdXdXdXdXdXdXR q c.$.2.U.Y l.m.T.<.f.dXdXdXdXdXdXdXdXdXdX",
"dX> 6.=.A A A A A M S S n m m B J ,.7.^.u.<.f . dXdXdXdXdXdXdXdXdXdXdXdXdXdXR q D.#.1. X9 y } eX<.j.dXdXdXdXdXdXdXdXdXdX",
"dXdX*.s dXdXdX  2 x n S n N , D.D.D.].5 f # dXdXdXdXdXdXdXdXdXdXdXdXdXdX  ; 0 r 3XoX(.OXI 1X-XP.Q.( dXdXdXdXdXdXdXdXdXdX",
"dXdXz y dXdXdXdX3 c c f g g h OX|.~.4XW C + . O dXdXdXdXdXdXdXdXdXdXdXdXdX; 0.3 4XW g .X` <X:XE o.%XdXdXdXdXdXdXdXdXdXdX",
"dXdXdXf dXdXdXdXdXO & a o.U.o.~.eX6X XqXv M f dXdXdXdXdXdXdXdXdXdXdXdX  dX# # 7 4XM 1.^.n.>X,X#X$XQ.dXdXdXdXdXdXdXdXdXdX",
"dXdXdXM dXdXdXdXdXA n D ,.J q.#..X8XA |.4XR ' dXdXdXdXdXdXdXdXdXdXdXdX; m # 3 5 4XT.qXqX*.S.qXuX;XdXdXdXdXdXdXdXdXdXdXdX",
"dXdXdXN dXdXdXdXdX3 M D -.&.| t ( 4XN ~.^.Q ) # dXo dXdXdXdXdXdXdX  dXdX3 w.o.u ].^.qXwXC w.t.yXC.dXdXdXdXdXdXdXdXdXdXdX",
"dXdXdX, dXdXdXdXdXdX7 y :X-Xm.$X#Xn.}.-.=.oX) $ C . dX    dX  dXdX. 2 0 # #._.L _ Y.#.8X).e.$.C f 7 dXdXdXdXdXdXdXdXdXdX",
"dXdXdXdXo dXdXdXdXdXdXdXC.B.C.F.>X( {.).1.<.eXp f 8   v   dX, dXdX% C 3 v f T ,.y.s ~.o i pXZ 9.L B dXdXdXdXdXdXdXdXdXdX",
"dXdXdXdXdXdXdXdXdXdXdXdX#X%.! ;XA.f.[ OX4.:.9X^.S j > 8.$ # F U _ P % p Q .X!.F.Z p.F y 9.5 [ f v 1 dXdXdXdXdX  dXdXdXdX",
"dXdXdXdXdXdXdXdXdXdXdXdXK.#XR.J.I.e k.` 3Xv G 9Xo.n XX5.1 - f 8 i { &X5X^.qXT.^.S.Q a.e.P C b = o dXdXdXdXdXdX< dXdXdXdX",
"dXdXdXdXdXdXdXdXdXdXdXdXdX( #.E. .v.$Xz.v.}.}.qX'.% u.Z f g Q Q.| @.*.>.7.U.9X9XD.: q <.i.s q B < dXdXdXdXdX< dXdXdXdXdX",
"dXdXdXdXdXdXdXdXdXdXdXdXdXdXK.8.s.;Xg.$Xs.|.9X3X*.u w.c.'..Xv.I.*.&.*.~.>.OX9X(.].d 8.a E w.B   f . dXdXdXdXF dXdXdXdXdX",
"dXdXdXdXdXdXdXdXdXdXdXdXdXdX8 B.k.^ :Xh.Q &.9X>.[ H <.S.!.W.v <.~.3.].I.[ e [ D <.pX;.C B . L <.  dXdXdXdXdXc dXdXdXdXdX",
"dXdXdXdXdXdXdXdXdXdXdXdXdXdXdXK.A.@XR.}.q.7.c.! P i.{ %.3X=XY.}.I...s.P R.<Xm.4.p.4.#.u f B . 7 w.< dXdXdX<.dXdXdXdXdXdX",
"dXdXdXdXdXdXdXdXdXdXdXdXdXdXdX$ N.*X$XI.G _.0 , # i.R n.2XE.P e R n.v.A.<X`.7XsXpX,.y.B f < b   o w.C O [ #.dXdXdXdXdXdX",
"dXdXdXdXdXdXdXdXdXdXdXdXdXdXdXdXdX9 [ A M '.2 C m G O i 3.B Q tX>X<X` v.rX;X#XsX,XB q.,.7 dXdXdXdXdXL e.3.dXdXdXdXdXdXdX",
"dXdXdXdXdXdXdXdXdXdXdXdXdXdXdXdXdXdXm M F / v q ,.* 7.>.| e.).'.=XrX+XsXpXU.S.;Xl.O C < dXdXdXdXdXdX% iXq.dXdXdXdXdXdXdX",
"dXdXdXdXdXdXdXdXdXdXdXdXdXdXdXdXdXdXM v 1 5 B % ,.* C oX| 1.aXY.n.~.XX:.1.;X<XC.dXdXdXdXdXdXdXdXdXdX`.1.3 dXdXdXdXdXdXdX",
"dXdXdXdXdXdXdXdXdXdXdXdXdXdXdXdXdXdXdX1 o c 1 7 B 5 f W e.L tXyX7X`.;X#Xz.r I dXdXdXdXdXdXdXdXdXdXB G dXdXdXdXdXdXdXdXdX",
"dXdXdXdXdXdXdXdXdXdXdXdXdXdXdXdXdXdXdXdXdXv   F O b 1 v 8.9.z.N.$X>X( dXdXdXdXdXdXdXdXdXdXdXdXdXB 7 dXdXdXdXdXdXdXdXdXdX",
"dXdXdXdXdXdXdXdXdXdXdXdXdXdXdXdXdXdXdXdXdX7   G   b @ B L G dXdXdXdXdXdXdXdXdXdXdXdXdXdXdXdXdXC dXdXdXdXdXdXdXdXdXdXdXdX",
"dXdXdXdXdXdXdXdXdXdXdXdXdXdXdXdXdXdXdXdXdXdX3 M = 1 dXdXdXdXdXdXdXdXdXdXdXdXdXdXdXdXdXdXdXdX, dXdXdXdXdXdXdXdXdXdXdXdXdX",
"dXdXdXdXdXdXdXdXdXdXdXdXdXdXdX< dXdXdXdXdXdXF , dXdXdXdXdXdXdXdXdXdXdXdXdXdXdXdXdXdXdXdXdXdXdXdXdXdXdXdXdXdXdXdXdXdXdXdX",
"dXdXdXdXdXdXdXdXdXdXdXdXdXdXdXdXb dXdXdXdX  ,.dXdXdXdXdXdXdXdXdXdXdXdXdXdXdXdXdXdXdXdXdXdXdXdXdXdXdXdXdXdXdXdXdXdXdXdXdX",
"dXdXdXdXdXdXdXdXdXdXdXdXdXdXdXdXdX< C r dXf F dXdXdXdXdXdXdXdXdXdXdXdXdXdXdXdXdXdXdXdXdXdXdXdXdXdXdXdXdXdXdXdXdXdXdXdXdX",
"dXdXdXdXdXdXdXdXdXdXdXdXdXdXdXdXdXdXdX%.$X<.-.dXdXdXdXdXdXdXdXdXdXdXdXdXdXdXdXdXdXdXdXdXdXdXdXdXdXdXdXdXdXdXdXdXdXdXdXdX",
"dXdXdXdXdXdXdXdXdXdXdXdXdXdXdXdXdXdXdXdX5 ,.iX5X1.M 7 dXdXdXdXdXdXdXdXdXdXdXdXdXdXdXdXdXdXdXdXdXdXdXdXdXdXdXdXdXdXdXdXdX",
"dXdXdXdXdXdXdXdXdXdXdXdXdXdXdXdXdXdXdXdXdXdXdXdXdXdXdXdXdXdXdXdXdXdXdXdXdXdXdXdXdXdXdXdXdXdXdXdXdXdXdXdXdXdXdXdXdXdXdXdX",
"dXdXdXdXdXdXdXdXdXdXdXdXdXdXdXdXdXdXdXdXdXdXdXdXdXdXdXdXdXdXdXdXdXdXdXdXdXdXdXdXdXdXdXdXdXdXdXdXdXdXdXdXdXdXdXdXdXdXdXdX",
"dXdXdXdXdXdXdXdXdXdXdXdXdXdXdXdXdXdXdXdXdXdXdXdXdXdXdXdXdXdXdXdXdXdXdXdXdXdXdXdXdXdXdXdXdXdXdXdXdXdXdXdXdXdXdXdXdXdXdXdX"
};
